<?xml version="1.0" encoding="UTF-8"?>
<svg id="resources" xmlns="http://www.w3.org/2000/svg" viewBox="0 0 142.68 144.26">
  <defs>
    <style>
      .cls-1 {
        fill: #4b260c;
      }

      .cls-2 {
        fill: #f5e188;
      }
    </style>
  </defs>
  <rect class="cls-2" x="0" y="0" width="142.68" height="144.26"/>
  <g>
    <g>
      <path class="cls-1" d="M95.5,40.1c-2.83-1.61-6.03-2.06-9.23-2.15-3.79-.11-7.6.05-11.38.26-3.74.21-7.47.55-11.19,1-1.76.22-3.52.46-5.28.72-1.6.24-3.49.32-4.9,1.21-1.05.66-1.6,1.74-2.06,2.85-.68,1.68-1.29,3.4-1.86,5.13-1.17,3.5-2.17,7.06-2.98,10.67-1.57,6.97-2.46,14.1-2.65,21.24-.1,3.69-.01,7.39.27,11.07.12,1.54.16,3.16.5,4.67s1.2,2.42,2.41,3.26c5.7,3.94,12.54,5.9,19.42,6.24,3.69.18,7.4-.06,11.06-.51,3.42-.42,7.04-.78,10.34-1.77,2.94-.88,4.56-2.8,5.8-5.52,1.4-3.07,2.02-6.33,2.63-9.63.71-3.91,1.53-7.78,1.94-11.74.43-4.2.43-8.45.4-12.67-.03-3.99-1.01-7.78-1.33-11.73-.32-3.97-.35-7.97-1.25-11.86-.22-.94-1.66-.54-1.45.4.76,3.32.87,6.72,1.1,10.1.1,1.42.21,2.84.4,4.25.24,1.8.71,3.56.88,5.38.3,3.3.16,6.68.11,10-.05,3.48-.38,6.96-.93,10.39-.51,3.21-1.17,6.41-1.79,9.6-.6,3.06-1.42,6.23-3.12,8.89-1.71,2.68-4.97,3.03-7.84,3.52-3.51.6-7.05,1.11-10.61,1.33-6.73.42-13.56-.23-19.75-3.03-1.31-.59-2.58-1.26-3.81-2.01-1.55-.95-2.93-1.77-3.25-3.71-.54-3.37-.61-6.9-.66-10.31-.2-13.32,2.06-26.66,6.67-39.17.62-1.69,1.11-3.8,3.02-4.42,1.7-.55,3.61-.67,5.37-.92,3.96-.56,7.95-.98,11.94-1.27,3.9-.28,7.81-.43,11.72-.44,3.62,0,7.35.13,10.58,1.96.84.48,1.6-.82.76-1.3h0Z"/>
      <path class="cls-1" d="M94.54,41.85c-.84,1.36-1.72,2.82-3.05,3.75-1.39.98-3.12.96-4.75,1.08-3.87.3-7.75.5-11.63.62-3.58.11-7.28.35-10.86-.02-3.56-.37-6.66-2.09-9.21-4.56-.69-.67-1.75.39-1.06,1.06,2.6,2.53,5.8,4.39,9.43,4.9,3.98.56,8.18.23,12.19.11,4.33-.14,8.68-.32,12.99-.75,1.52-.15,2.89-.5,4.1-1.47,1.33-1.06,2.26-2.53,3.15-3.96.51-.82-.79-1.58-1.3-.76h0Z"/>
      <path class="cls-1" d="M59.28,48.35c.72,14.41-5.54,28.05-6.21,42.35-.18,3.8.09,7.6,1.02,11.3.23.94,1.68.54,1.45-.4-3.46-13.86,2.44-28.08,4.51-41.69.58-3.83.93-7.69.73-11.56-.05-.96-1.55-.97-1.5,0h0Z"/>
      <path class="cls-1" d="M65.48,88.37c1.26-4.85,4.38-8.84,7.36-12.76,1.5-1.97,3.03-3.94,4.84-5.64,1.23-1.15,2.68-2.28,3.35-3.88.62-1.48.23-3.17-1.01-4.21-1.12-.93-3.31-1.23-3.82.51-1.09,3.74,3.08,8.09,6.79,7.52,1.82-.28,2.23-2.09.83-3.24-1.52-1.24-4.14-1.34-5.39.29-.59.76.71,1.51,1.3.76.52-.68,2.98-.67,3.36.3.33.84-1.91.22-2.28.07-.95-.38-1.77-1.02-2.34-1.87-.47-.7-1.11-2.09-.87-2.95l.03-.48c.41-.21.8-.19,1.16.07.42.25.78.71.93,1.18.26.78-.04,1.53-.48,2.17-.79,1.17-1.96,2.03-2.96,3-2.69,2.61-4.92,5.77-7.12,8.79-2.22,3.05-4.2,6.29-5.16,9.97-.24.93,1.2,1.33,1.45.4h0Z"/>
      <path class="cls-1" d="M77.94,68.56c.11-.85.08-1.76-.58-2.4-.57-.55-1.61-.86-2.39-.87-.92,0-1.66.75-2.13,1.48-.51.8-.42,1.73.04,2.54.39.68.97,1.37,1.58,1.86.18.14.36.28.57.39.16.09.4.13.54.24.23.18.39.52.6.75.55.61,1.28,1.06,2.07,1.31.45.14.95.2,1.38-.05.39-.22.67-.66.89-1.04.53-.87.52-1.91-.09-2.74s-1.59-1.24-2.56-1.58c-.38-.13-.82.15-.92.52-.11.41.14.79.52.92.71.25,2.31.81,1.89,1.87-.1.25-.29.45-.43.68-.02.03-.07.06-.09.1l.06-.03c.08-.02.08-.03.02-.03-.04-.06-.34-.09-.43-.13-.47-.17-.88-.47-1.22-.83-.16-.17-.28-.36-.42-.55-.24-.33-.52-.47-.88-.63-.49-.21-.84-.57-1.19-.97-.3-.35-.72-.8-.79-1.28s.38-.88.69-1.16c.2-.17.36-.14.61-.09.27.06.56.13.81.25.55.28.4.95.33,1.46-.05.4.38.75.75.75.45,0,.7-.35.75-.75h0Z"/>
      <path class="cls-1" d="M75.11,72.81c.4-1.07-.09-2.36-1.06-2.94-.58-.35-1.38-.44-2.05-.42-.73.02-1.24.39-1.69.94-.85,1.03-1.44,2.33-.66,3.59.64,1.03,2.03,2.11,3.24,1.29l-1.13-.65c-.07,1.12.74,2.01,1.61,2.58.97.64,2.18.91,3.17.16.46-.35.77-.83.99-1.36.2-.49.41-1.07.4-1.61,0-.61-.37-1.07-.73-1.53s-.8-.9-1.25-1.3c-.3-.27-.76-.3-1.06,0-.27.27-.3.79,0,1.06s.6.56.87.86c.2.23.58.55.66.86.07.25-.13.68-.21.92-.1.3-.24.59-.46.81-.49.48-1.08.19-1.58-.13-.46-.3-.95-.73-.91-1.32.04-.55-.67-.96-1.13-.65s-1.09-.52-1.27-.89c-.3-.61.2-1.27.58-1.72.27-.31.39-.43.81-.4.34.02.74.03,1.04.21.45.27.53.81.37,1.25-.14.38.16.82.52.92.42.12.78-.14.92-.52h0Z"/>
      <path class="cls-1" d="M70.98,75.85c-.7-.58-1.5-1.02-2.39-1.25-.76-.2-1.92-.42-2.56.17-.31.29-.44.71-.54,1.11-.11.45-.17.94-.02,1.4.31.9,1.29,1.3,2.15,1.45.44.07.88.09,1.33.04.07,0,.38-.02.45-.07.36-.3-.5-.11-.45-.31-.05.2.06.53.12.73.25.86.84,1.58,1.43,2.24s1.36,1.23,2.27.99c.83-.22,1.41-1.1,1.56-1.9.38-2.07-1.12-3.56-2.63-4.7-.32-.24-.84-.05-1.03.27-.22.38-.06.78.27,1.03.83.63,1.84,1.44,1.95,2.56.04.4-.03,1.05-.43,1.27-.33.18-.78-.45-.96-.66-.39-.44-.81-.92-.97-1.49-.07-.26-.06-.53-.15-.78-.13-.39-.46-.68-.87-.72-.31-.03-.61.08-.92.09-.36.02-.7-.03-1.05-.13-.18-.05-.5-.14-.62-.31-.1-.16-.02-.41.02-.58.03-.12.09-.26.1-.37l.05-.08-.15.11s.2-.02.19-.02c.32-.01.65.04.96.11.67.16,1.31.45,1.84.89.31.26.75.31,1.06,0,.26-.26.31-.8,0-1.06h0Z"/>
      <path class="cls-1" d="M81.84,64.65c.17.12-.07-.13.03.02-.02-.03-.11-.2-.08-.14.03.06-.04-.13-.05-.17-.01-.05-.02-.09-.03-.14-.03-.13,0,.02,0-.06,0-.09-.01-.18-.01-.26,0-.03.03-.3,0-.17.01-.08.04-.16.06-.25,0-.02.06-.15.02-.07s.05-.09.05-.09c0-.02.07-.1.01-.02.03-.03.06-.07.09-.1.07-.08.15-.15.23-.23.17-.16.35-.29.54-.42.45-.3.94-.55,1.44-.76.47-.2.98-.38,1.49-.45.22-.03.5-.04.7-.01.06,0,.18.03.26.06.07.02.12.05.18.07-.06-.03.03.03.04.04-.07-.05-.01-.02.01.02-.04-.09.02-.02,0,.01,0,.01.02-.2,0,0,0,0-.01.12,0,.05.01-.09-.02.07-.03.09-.04.13-.03.11-.11.25-.22.41-.54.74-.87,1.06-.87.83-1.86,1.53-2.91,2.12-.84.47-.09,1.77.76,1.3,1.21-.68,2.37-1.51,3.36-2.49.83-.83,1.88-2.3.91-3.41-.44-.51-1.17-.67-1.82-.67-.74,0-1.48.18-2.16.45-1.2.47-2.62,1.13-3.36,2.24-.67,1-.48,2.73.53,3.43.33.23.83.06,1.03-.27.22-.37.06-.79-.27-1.03h0Z"/>
    </g>
    <path class="cls-1" d="M55.11,43.32c3.33.8,6.79,1.99,10.22,2.21,3.57.23,7.27-.21,10.85-.37,3.62-.16,7.24-.31,10.86-.47,1.31-.06,2.48-.06,3.61-.78,1.46-.93,2.88-1.7,4.56-2.18.93-.26.53-1.71-.4-1.45-1.37.39-2.7.94-3.92,1.68-.63.39-1.23.93-1.97,1.1s-1.61.11-2.38.15c-3.46.15-6.91.3-10.37.45-3.36.15-6.75.45-10.11.39-3.53-.06-7.15-1.36-10.56-2.18-.94-.23-1.34,1.22-.4,1.45h0Z"/>
  </g>
</svg>