<?xml version="1.0" encoding="UTF-8"?>
<svg id="resources" xmlns="http://www.w3.org/2000/svg" viewBox="0 0 142.68 144.26">
  <defs>
    <style>
      .cls-1 {
        fill: #4b260c;
      }

      .cls-2 {
        fill: #f5e188;
      }
    </style>
  </defs>
  <rect class="cls-2" width="142.68" height="144.26"/>
  <g>
    <path class="cls-1" d="M66.97,43.22c7.01.58,14.2,1.51,20.62,4.59,3.27,1.57,6.26,3.66,8.87,6.19,2.76,2.67,4.38,5.69,5.53,9.33,1.06,3.35,1.9,6.98,1.66,10.52-.26,3.81-.89,7.67-1.87,11.36-1.48,5.61-4.01,10.8-8.78,14.26s-10.22,6-16,6.77c-3.68.49-7.21-.02-10.79-.86s-6.83-1.86-10.04-3.34c-6.47-2.98-11.9-7.71-15.02-14.19s-4.01-14.32-2.57-21.45c1.35-6.71,4.93-13.27,10.01-17.89,2.31-2.11,5.04-3.79,8.04-4.7,2.58-.79,5.15-.85,7.82-.71l2.52.13c.96.05.96-1.45,0-1.5-2.15-.11-4.34-.35-6.49-.17-3.2.26-6.3,1.29-9.05,2.95-5.97,3.61-10.34,9.86-12.81,16.29-2.71,7.08-2.9,15.15-.83,22.42s6.55,13.42,12.89,17.53c3.02,1.96,6.34,3.43,9.75,4.57s7.17,2.15,10.82,2.52c6.94.71,13.91-1.68,19.77-5.25,1.67-1.02,3.31-2.14,4.79-3.43,2.51-2.19,4.3-5.11,5.59-8.15,1.55-3.65,2.45-7.53,3.06-11.44s.94-7.43.3-11.23-1.66-7.45-3.46-10.67-4.93-6.03-8-8.22c-6-4.27-13.15-6.16-20.37-7.1-1.98-.26-3.97-.45-5.96-.62-.96-.08-.96,1.42,0,1.5Z"/>
    <path class="cls-1" d="M65.79,94.07c.28-1.52,1.02-2.83,2.27-3.76l-.91-.12c1.8,1.94,4.23,2.96,6.32,4.51,2.2,1.63,3.86,3.87,5.2,6.24,2.79,4.94,4.25,10.52,7.36,15.3.37.57,1.48.42,1.4-.38-.6-5.57-.99-11.17-1.15-16.77-.08-2.72-.1-5.44-.07-8.16,0-.85-.1-1.77.69-2.3.43-.29.97-.48,1.45-.69,1.31-.57,2.64-1.08,3.99-1.55.91-.31.52-1.76-.4-1.45-1.33.46-2.64.97-3.94,1.52-.97.42-2.16.79-2.79,1.7-.68.99-.5,2.36-.51,3.5-.01,1.65,0,3.3.02,4.94.1,6.43.51,12.85,1.2,19.24l1.4-.38c-3.18-4.89-4.64-10.63-7.56-15.65-1.3-2.23-2.89-4.32-4.91-5.94-2.13-1.71-4.77-2.73-6.65-4.76-.2-.22-.65-.31-.91-.12-1.56,1.16-2.61,2.73-2.96,4.66-.17.94,1.27,1.35,1.45.4h0Z"/>
    <path class="cls-1" d="M86.77,112.98c-3.07-8.88-8.15-16.83-13.27-24.64-4.56-6.97-9.36-13.92-15.42-19.69-3.39-3.23-7.16-6.03-11.34-8.16-.86-.44-1.62.86-.76,1.3,7.31,3.73,13.2,9.53,18.22,15.93s9.96,14.02,14.29,21.36c2.69,4.56,5.09,9.28,6.82,14.29.31.91,1.76.52,1.45-.4h0Z"/>
    <path class="cls-1" d="M86.8,111.66c-3.62-8.94-7.25-17.89-10.87-26.83s-6.73-17.6-10.92-25.99c-2.28-4.57-5.01-8.9-8.06-13.01-.57-.77-1.87-.02-1.3.76,5.5,7.41,9.44,15.49,12.9,24.01s7.11,17.55,10.67,26.32c2.04,5.04,4.09,10.09,6.13,15.13.36.88,1.81.5,1.45-.4h0Z"/>
    <path class="cls-1" d="M85.5,108.55c-3.7-21.16-9.54-41.85-15.76-62.38-.83-2.74-1.76-5.47-2.44-8.25-.48-1.97-1.02-3.81-1.88-5.65-.41-.87-1.7-.11-1.3.76.78,1.67,1.26,3.35,1.69,5.14.57,2.37,1.35,4.68,2.06,7.01,1.55,5.1,3.07,10.2,4.55,15.32,2.96,10.23,5.73,20.52,8.09,30.91,1.32,5.82,2.51,11.67,3.54,17.55.17.95,1.61.55,1.45-.4h0Z"/>
    <path class="cls-1" d="M63.7,76.12c-1.19-.02-2.35.25-3.53.3-.85.03-1.82-.05-2.52-.6-.06-.05-.11-.13-.18-.17-.11-.06,0,.08.05.05-.04.02.14-.29.13-.27.05-.07.1-.12.17-.18.33-.3.79-.41,1.22-.44,1.18-.1,2.41.03,3.57.18.59.08.9-.68.65-1.13-.31-.56-.29-1.26.05-1.8.25-.41.89-.93,1.15-.27.28.72.03,1.65-.19,2.34-.3.92-.78,1.78-1.25,2.62s.83,1.6,1.3.76c.66-1.19,1.34-2.42,1.61-3.77.22-1.11.28-2.58-.68-3.38-1.1-.92-2.59-.13-3.23.94-.61,1.01-.62,2.3-.05,3.32l.65-1.13c-.76-.1-1.53-.16-2.3-.19s-1.52-.04-2.25.16c-1.09.31-2.58,1.6-1.93,2.88.55,1.08,2.08,1.47,3.18,1.56,1.47.13,2.92-.31,4.38-.29.97.01.97-1.49,0-1.5h0Z"/>
    <path class="cls-1" d="M58.24,69.42c-1.01-.17-2.04-.3-3,.12-.82.36-1.35,1.06-1.51,1.94-.09.49-.11,1.03.25,1.43.34.37.89.43,1.36.52.96.19,1.93.31,2.9.37.92.05,2.08.09,2.81-.58.32-.3.45-.71.56-1.12.13-.47.25-.95.35-1.44.19-.91.4-1.87.4-2.8,0-.78-.21-1.6-.88-2.06-.91-.62-2.08-.16-2.71.63-.67.84-1.07,1.95-1.33,2.98-.24.94,1.21,1.34,1.45.4.16-.64.38-1.27.69-1.85.18-.34.49-.98.96-.94.15.01.18.08.24.22.06.13.08.34.08.53.01.61-.11,1.24-.22,1.84-.12.68-.28,1.36-.46,2.03-.05.18-.06.42-.21.52-.19.14-.57.15-.8.16-.71.03-1.44-.04-2.15-.13-.29-.04-.59-.08-.88-.13-.18-.03-.36-.06-.54-.1-.13-.03-.46-.16-.59-.13h-.05c.06.05.12.11.19.17.02-.01,0-.1.02-.12.06-.14.05-.31.12-.45.1-.23.28-.39.51-.5.63-.31,1.38-.17,2.04-.06.4.07.81-.1.92-.52.1-.36-.12-.86-.52-.92h0Z"/>
    <path class="cls-1" d="M53.51,65.5c-.51,0-1.01,0-1.52,0-.57,0-1.01.17-1.29.7-.41.8-.71,1.81-.13,2.61.52.71,1.54,1.11,2.33,1.43.84.34,1.71.58,2.61.71.44.06.89.11,1.34.12s1.02.05,1.44-.18c1.01-.55.25-1.72.11-2.53s-.11-1.71-.2-2.56c-.1-.94-.27-1.98-1.04-2.62s-1.92-.56-2.61.23c-.65.74-.9,1.77-1.05,2.72-.06.4.1.81.52.92.36.1.86-.12.92-.52.11-.69.25-1.57.7-2.09.14-.17.25-.26.43-.19.31.13.43.51.5.81.21.83.18,1.7.25,2.55.03.44.08.89.17,1.32.04.21.1.42.17.63s.18.4.21.62v-.4c.3-.19.38-.26.23-.22-.05.01-.06.01-.02,0-.09-.02-.21,0-.3,0-.22,0-.44,0-.66-.01-.37-.02-.75-.06-1.12-.13-.82-.15-1.64-.39-2.4-.74-.38-.17-.75-.36-1.1-.59-.23-.15-.28-.26-.23-.54.04-.18.1-.35.18-.51.02-.04.1-.14.09-.19-.31.09-.39.13-.24.12.06,0,.12,0,.18,0,.51,0,1.01,0,1.52,0,.97,0,.97-1.5,0-1.5h0Z"/>
    <path class="cls-1" d="M50.14,62.95c-1.38-.42-3.09.14-3.84,1.41-.3.51-.11,1.1.43,1.33.39.17.81.27,1.23.33.86.12,1.72.08,2.58-.01s1.69-.21,2.55-.21c.5,0,.98-.05,1.2-.58.16-.4.05-.93.02-1.35-.1-1.62-.14-3.66-1.9-4.4-.88-.37-1.85-.1-2.45.63s-.7,1.66-1.13,2.49.85,1.61,1.3.76c.34-.65.44-1.42.82-2.05.26-.44.62-.64,1.06-.35.49.32.64.95.7,1.49.05.39.06.79.09,1.19.01.19.02.38.04.56,0,.1.01.21.02.31v.13c0,.17.02.17.06,0l.27-.27c.2-.05.21-.06.03-.05-.06,0-.12,0-.18,0-.14,0-.28,0-.42.01-.24.01-.49.03-.73.05-.55.05-1.09.12-1.64.17-.52.05-1.03.08-1.55.05-.23-.01-.45-.03-.67-.08-.12-.02-.23-.05-.34-.08-.08-.02-.15-.04-.23-.07-.15-.06-.15-.05,0,.03l.22.53v-.09c-.04.13-.07.25-.11.38.39-.79,1.43-1.04,2.19-.81.93.28,1.32-1.16.4-1.45h0Z"/>
    <path class="cls-1" d="M46.93,60.49c-.68-.37-1.55-.3-2.11.26s-.64,1.34-.33,2.02c.64,1.38,2.48,1.42,3.77,1.24.68-.1,1.55-.24,1.81-.98.12-.34.11-.73.14-1.09s.06-.72.09-1.08c.06-.71.11-1.43-.17-2.1-.26-.62-.77-1.13-1.45-1.25-.74-.13-1.53.18-2.03.74s-.75,1.32-.95,2.06c-.1.38.13.83.52.92s.81-.12.92-.52.22-.82.38-1.11c.11-.2.14-.23.29-.39.08-.09.05-.05.02-.03.04-.03.08-.06.12-.08s.09-.05.13-.07c-.07.04-.02,0,.02,0s.09-.03.14-.04c.15-.04.05,0,.01,0,.05,0,.09,0,.14,0-.03,0-.13-.03.01,0,0,0,.11.04.05.01-.08-.03.06.04.07.05.1.06-.06-.07.02.02.01.01.12.13.05.04.05.07.1.15.13.22.06.11-.03-.09.01.03.01.04.02.07.03.11.06.21.06.43.06.68-.02.5-.07,1-.11,1.5-.02.24-.04.49-.06.73,0,.05,0,.1-.01.15.01-.11,0,.01,0,.03-.04.07.11-.17.12-.19l.05-.02s-.07.02-.11.03c-.46.14-.84.2-1.31.21-.23,0-.46,0-.68-.02-.14-.01.08.02-.06,0-.04,0-.08-.01-.13-.02-.09-.02-.27-.07-.32-.09-.05-.02-.19-.1-.27-.16.03.02.07.07-.02-.03l-.05-.05s.03.05,0,0c-.02-.03-.04-.06-.06-.1-.04-.07-.05-.09-.02-.05.02.04.02.03,0-.05,0,.16.04-.2,0-.04.01-.04.02-.1.04-.14-.05.11.06-.05,0,0,.02-.02.07-.08.12-.09-.02,0-.08.04,0,0,.05-.01.05-.01,0,0h.08c.16,0,.06,0,.03,0l.08.02c-.06-.03-.05-.03.03.02.36.19.82.09,1.03-.27s.09-.83-.27-1.03h0Z"/>
    <path class="cls-1" d="M47.15,60.9c.03-.22.04-.39.01-.6s-.09-.38-.18-.57c-.13-.27-.33-.52-.56-.71-.58-.47-1.3-.63-2.03-.63-.33,0-.69,0-1.01.07-.56.13-.89.65-.77,1.21.07.33.35.67.58.91.2.21.45.4.71.53.64.34,1.37.45,2.08.29.38-.08.64-.55.52-.92-.13-.4-.51-.61-.92-.52-.04,0-.09.01-.13.02.01,0,.19-.02.07-.01-.02,0-.04,0-.07,0-.09,0-.19,0-.28,0-.02,0-.04,0-.06,0-.1,0,.17.03.07,0-.04,0-.09-.02-.13-.03-.1-.02-.2-.05-.29-.09-.02,0-.04-.02-.06-.02,0,0,.15.07.08.03-.04-.02-.08-.04-.12-.06-.09-.05-.17-.11-.26-.16-.07-.04.07.05.06.05-.02-.01-.03-.03-.05-.04-.03-.03-.07-.06-.1-.09-.04-.03-.07-.07-.11-.11-.02-.02-.13-.16-.05-.06s-.01-.02-.03-.05c-.03-.04-.05-.09-.08-.13-.03-.05-.05-.14,0,.07l.03.12-.17.39s-.1.07-.15.1c-.11.05-.03.02,0,0s.13-.02,0,0c-.12.02-.05,0-.02,0,.05,0,.11,0,.16,0,.13,0,.26-.01.38-.02.11,0,.22,0,.33,0,.06,0,.13,0,.19.01.02,0,.06.01.08,0-.04,0-.14-.02-.04,0,.11.02.21.04.31.08,0,0,.1.03.1.04,0,0-.14-.07-.07-.03.05.02.09.05.14.07.05.03.1.07.15.1,0,0-.12-.1-.06-.05.02.02.05.04.07.06.04.04.07.08.11.11.02.02.07.08,0,0-.08-.09,0,0,.02.03.03.04.05.09.07.14.04.07-.03-.08-.03-.08,0,.03.02.06.03.08,0,.02,0,.04.02.06.03.09,0-.18,0-.05,0,.06-.02.25.02.02-.03.21-.04.39.08.58.09.16.27.3.45.34.35.08.87-.11.92-.52h0Z"/>
    <path class="cls-1" d="M68.9,70.65c-1.29-.26-3.65.13-3.63,1.84.02,1.45,1.26,2.55,2.59,2.89.73.19,1.5.2,2.25.17.39-.02.82-.01,1.17-.21.31-.18.52-.47.66-.79.31-.69.58-1.42.81-2.14s.35-1.52.17-2.27c-.2-.83-.87-1.61-1.79-1.54-1.02.08-1.52.96-1.86,1.81-.15.38.16.82.52.92.43.12.77-.15.92-.52.08-.19.16-.4.29-.56.04-.04.07-.08.11-.1.02-.02.14-.07.1-.06.03,0,.1.05.02,0,.07.05.05.04.1.11.1.15.15.32.17.5.06.48-.08.97-.23,1.42-.16.49-.35.98-.54,1.46-.06.16-.1.42-.24.51.15-.1-.27-.04-.33-.04-.49.02-.99.04-1.48-.02-.46-.06-.84-.18-1.2-.43-.25-.17-.53-.48-.62-.72-.03-.08-.08-.24-.08-.27,0,0,.02-.33-.02-.2.02-.05-.03.1-.04.08,0-.03.07-.06.08-.06.11-.07.23-.14.35-.19.42-.18.9-.23,1.34-.14.4.08.81-.11.92-.52.1-.37-.13-.84-.52-.92h0Z"/>
    <path class="cls-1" d="M67.62,66.31c-.93-.13-1.85-.24-2.73.15-.75.34-1.27,1.01-1.35,1.83-.16,1.82,1.69,2.82,3.21,3.12.77.15,1.86.35,2.6-.05s.98-1.47,1.27-2.22c.55-1.43,1.65-3.4.39-4.77-.68-.74-1.74-.71-2.56-.23s-1.39,1.25-1.79,2.06c-.18.36-.1.81.27,1.03.33.19.85.1,1.03-.27.24-.49.54-.93.94-1.3.15-.13.31-.25.5-.32s.31-.09.44-.01c.05.03.16.17.19.26.08.23.08.39.03.66-.11.62-.4,1.21-.63,1.8s-.43,1.24-.7,1.83c-.05.11-.04.16-.14.17-.25.04-.59.01-.86-.01-.85-.07-2.22-.31-2.62-1.19-.2-.43-.06-.8.35-1.02.52-.27,1.19-.17,1.75-.08.4.06.81-.1.92-.52.1-.35-.12-.86-.52-.92h0Z"/>
    <path class="cls-1" d="M66.17,61.8c-1.03-.18-2.15-.21-3.16.11-.82.26-1.64.81-1.82,1.7-.2,1.02.46,1.97,1.35,2.41s2.05.55,3.07.61c.48.02.97.06,1.45.02.61-.05.97-.34,1.31-.83.59-.83,1.16-1.71,1.59-2.64.57-1.21,1.75-4.91-.68-4.91-1.97,0-3.76,1.58-4.26,3.43-.25.93,1.19,1.33,1.45.4.28-1.03,1.09-1.89,2.11-2.2.13-.04.25-.07.38-.09.07-.01.27,0,.31-.03.09-.08-.13-.04-.09-.1h0s.03.07.03.11c0,.13.01.26.01.39-.01.67-.19,1.34-.45,1.96-.27.66-.64,1.28-1.02,1.88-.19.3-.38.59-.58.88-.04.06-.11.23-.18.26-.09.05-.33,0-.42,0-.76,0-1.54-.02-2.29-.16-.53-.1-1.31-.21-1.59-.74-.63-1.19,2.57-1.08,3.04-1,.4.07.81-.11.92-.52.1-.36-.12-.85-.52-.92h0Z"/>
    <path class="cls-1" d="M64.08,57.64c-.85-.14-1.7-.1-2.48.3-.66.33-1.19.95-1.41,1.66s-.08,1.49.35,2.08c.53.72,1.31.89,2.16.94s1.74.09,2.55-.08c.76-.16,1.27-.9,1.71-1.5.46-.64.83-1.34,1.11-2.07.16-.41.29-.85.17-1.29-.11-.41-.37-.76-.66-1.06-.6-.63-1.56-1.32-2.42-.75-.39.26-.72.67-1.05,1.01-.37.37-.74.74-1.11,1.11-.68.68.38,1.75,1.06,1.06.45-.45.89-.89,1.34-1.34.06-.06.61-.52.6-.59.02.14-.32-.13-.08.07.09.07.19.12.28.2.17.14.35.3.48.48.15.2.1.27.02.5-.17.49-.42.96-.69,1.41s-.57.88-.94,1.21c-.11.1-.21.11-.37.13-.33.03-.66.03-1,.04-.31,0-.62,0-.93-.02-.25-.01-.54,0-.77-.11s-.39-.42-.4-.65c-.07-1.03,1.25-1.41,2.1-1.27.4.07.81-.1.92-.52.1-.36-.12-.86-.52-.92h0Z"/>
    <path class="cls-1" d="M61.61,54.03c-.87-.2-1.78-.19-2.63.08-.76.24-1.69.7-2.11,1.42-.5.86.05,1.73.86,2.1.9.41,1.88.67,2.85.82.46.07.92.13,1.38.16s1,.09,1.45-.07c.8-.27,1.38-1.22,1.76-1.92.42-.76.71-1.59.83-2.44.11-.77.23-1.73-.32-2.37-.73-.86-1.88-.22-2.64.26-.82.52-1.49,1.19-2.06,1.97-.24.33-.06.84.27,1.03.38.22.79.06,1.03-.27.31-.43.69-.83,1.11-1.15.15-.11,1.3-.82,1.32-.79,0-.01-.15-.08-.16-.07,0,0,.04.19.04.19.03.28,0,.59-.04.87-.08.55-.23,1.11-.47,1.61s-.53,1-.91,1.42c-.17.2-.22.26-.48.26-.37,0-.74-.02-1.11-.06-.65-.06-1.29-.19-1.91-.36-.31-.09-.62-.18-.92-.29-.12-.04-.25-.09-.37-.14-.07-.03-.16-.12-.23-.13.13.01-.14.19.09.03.12-.08.22-.19.35-.27.25-.16.51-.29.79-.37.6-.19,1.22-.22,1.83-.08.94.22,1.34-1.23.4-1.45h0Z"/>
    <path class="cls-1" d="M59.7,50.33c-.95-.11-1.92-.06-2.86.16-.83.19-1.71.53-2.06,1.37-.38.89.02,1.81.92,2.16s1.91.41,2.83.5c.44.05.89.08,1.34.1.48.02,1.05.1,1.52-.03.79-.21,1.3-1.22,1.65-1.89.39-.78.68-1.61.82-2.47s.33-1.91-.43-2.5c-.85-.67-2.02-.3-2.81.27s-1.47,1.3-1.99,2.14.79,1.58,1.3.76c.3-.48.65-.91,1.07-1.28.36-.33.85-.75,1.37-.74.18,0,.11,0,.1.21,0,.27-.03.54-.07.81-.09.58-.26,1.16-.49,1.7-.11.25-.24.5-.38.73-.15.25-.36.48-.49.74,0,.01-.06.09-.07.09.02-.01.13-.05,0-.03-.16.02-.34,0-.5,0-.35,0-.7-.02-1.04-.04-.7-.05-1.4-.13-2.09-.25-.32-.06-.65-.11-.96-.2-.08-.02-.15-.04-.23-.08-.1-.05-.01.05,0-.01.03-.49.98-.6,1.33-.67.74-.15,1.51-.15,2.25-.06.4.05.75-.38.75-.75,0-.44-.35-.7-.75-.75h0Z"/>
    <path class="cls-1" d="M57.29,46.99c-.71-.06-1.48-.07-2.11.33s-1.14,1.28-.7,2.02c.37.62,1.2.78,1.84.97.68.19,1.37.33,2.07.43.35.05.71.09,1.06.11.49.03.97-.05,1.15-.58.12-.34.12-.75.16-1.1s.08-.73.11-1.09c.03-.33.05-.66.07-1,.02-.38.06-.77-.01-1.16-.15-.83-.95-1.17-1.72-1.05-1.37.21-2.47,1.41-2.91,2.66-.14.38.15.82.52.92.42.11.79-.14.92-.52.06-.17.18-.41.35-.65.03-.04.03-.04,0,0l.05-.06c.05-.06.1-.11.15-.17.1-.1.2-.19.3-.28.04-.03.04-.03,0,0l.06-.04c.06-.04.12-.08.19-.12s.13-.08.2-.11c.02-.01.21-.1.09-.05.11-.05.23-.08.34-.11.16-.04-.07-.01.08,0,.17,0-.08-.06.06.01-.05-.02-.08-.06-.13-.08-.01-.02-.03-.04-.03-.06.02.08.02.1.01.05,0-.07,0,.12,0,.14,0,.09,0,.19-.01.28-.02.37-.04.73-.07,1.1s-.06.73-.1,1.1c-.03.31-.03.71-.14,1l.19-.33-.04.04.33-.19c.14-.04.07-.01-.04-.02-.08,0-.16-.01-.24-.02-.14-.01-.29-.02-.43-.04-.27-.03-.52-.07-.8-.12-.62-.11-1.23-.26-1.82-.45-.14-.04-.27-.09-.41-.14-.02,0-.21-.06-.13-.05.03.02.03.01,0,0-.05-.03-.04-.02,0,.02.01.03.04.06.05.09,0,0,0,.13,0,.12,0,.01.03-.07.07-.11-.07.08.08-.06.02-.01-.03.02.24-.14.15-.1.08-.04.23-.08.29-.09.31-.05.65,0,.97.02.4.04.75-.37.75-.75,0-.44-.34-.71-.75-.75h0Z"/>
    <path class="cls-1" d="M57.5,46.45c.22-.84-.03-1.71-.59-2.36s-1.35-.94-2.16-1.02c-.86-.09-1.83.23-2.22,1.05-.42.88.04,1.86.9,2.26.47.22.98.27,1.49.33.07,0,.1-.02-.01,0,.04,0,.13.02.17.03.1.02.19.04.28.07.02,0,.11.03.11.04,0-.03-.12-.06,0,0,.04.02.08.05.12.07.13.07-.09-.09.03.02.29.26.78.31,1.06,0,.26-.29.31-.78,0-1.06-.56-.51-1.24-.61-1.96-.7-.03,0-.06,0-.1-.01-.12-.01.12.02,0,0-.07-.01-.15-.02-.22-.04-.06-.01-.12-.03-.19-.05-.02,0-.1-.02-.12-.04.03.03.1.05.02,0-.01,0-.18-.11-.19-.11,0,0,.11.09.05.03-.02-.02-.04-.04-.06-.05,0,0-.07-.06-.07-.08,0,0,.08.13.04.05-.02-.03-.03-.06-.05-.09-.05-.07.03.12.02.04,0-.03-.03-.14-.01-.03s0,0,0,0c-.03-.11.08.01,0,.04,0,0,.02-.07.02-.08.02-.1-.07.11-.01.03.02-.02.03-.05.04-.07.06-.1,0,.03-.02.02,0,0,.07-.07.08-.08.08-.08-.02.02-.02.01,0,0,.07-.04.07-.04.03-.02.05-.03.08-.04-.13.07-.04.02,0,0,.07-.02.14-.03.21-.05.09-.02-.04,0-.05,0,.02-.02.12,0,.16,0,.07,0,.15,0,.22,0,.03,0,.23.03.13.01s.11.02.13.03c.08.02.15.04.23.06.03,0,.22.08.13.04s.1.05.12.06c.05.03.1.06.15.09.02,0,.08.04.1.06-.03-.04-.08-.07-.01-.01.06.05.12.1.17.16,0,0,.07.06.08.08l-.05-.06s.03.05.05.07c.04.06.08.13.12.19,0,0,.04.07.04.08,0,0-.05-.15,0,0,.02.07.05.14.06.22,0,0,.01.08.02.08-.02,0-.01-.17,0,0,0,.07,0,.15,0,.22,0,.09,0-.06.01-.06,0,0-.03.15-.04.16-.1.38.13.83.52.92s.82-.12.92-.52h0Z"/>
    <g>
      <path class="cls-1" d="M71.75,55.05h-2.19c-.37,0-.7.02-.97.31s-.3.79-.3,1.17c0,.74.38,1.37.97,1.78.55.38,1.24.5,1.89.5.71,0,1.51-.01,2.1-.46.54-.41.99-.97,1.41-1.5.45-.55.86-1.12.93-1.85.07-.67-.25-1.37-.86-1.7s-1.43-.28-2.04.06-1.06.99-1.44,1.59c-.22.34-.07.83.27,1.03.36.21.81.07,1.03-.27s.46-.74.75-.96c.03-.02.28-.16.17-.11.07-.03.14-.05.22-.06-.12.03.14,0,.18,0,.09,0,.1,0,.02,0,.05.01.09.02.14.04-.07-.03-.06-.02.01.02-.05-.05-.05-.04.02.02-.04-.06-.03-.05.02.03-.01-.05,0-.04.02.05.04.11.02.02.01.14,0,.09,0,.09-.05.22-.13.38-.48.74-.76,1.07-.18.21-.36.41-.54.6-.15.15-.32.37-.48.44-.13.06-.32.06-.48.07-.28.02-.56.04-.85.02-.23-.01-.47-.05-.68-.14.09.04-.1-.06-.11-.07-.05-.03-.09-.06-.14-.09.05.03.04.02-.03-.04-.13-.13-.17-.16-.2-.35-.02-.16,0-.38.06-.54l-.19.33c-.34.09-.43.14-.26.13h.16c.11,0,.22,0,.33,0h.6c.42,0,.84,0,1.26,0,.97,0,.97-1.5,0-1.5h0Z"/>
      <path class="cls-1" d="M70.49,51.27h-.96c-.42,0-.84.02-1.16.33-.47.46-.46,1.33-.48,1.94,0,.34-.01.69.13,1s.4.55.71.7c.59.3,1.25.51,1.9.61.35.06.69.09,1.04-.01.36-.11.66-.35.91-.63.42-.46.8-.96,1.16-1.47s.67-1.06.95-1.62c.17-.33.35-.68.24-1.06-.11-.41-.5-.6-.86-.76-.67-.29-1.45-.46-2.16-.2-.65.24-1.23.76-1.37,1.47-.08.4.11.81.52.92.37.1.85-.12.92-.52,0-.05.02-.1.03-.15-.02.07,0,.02.01-.03.01-.03.06-.1.01-.03.03-.04.07-.07.1-.11.02-.02.09-.07.03-.02.04-.03.09-.05.13-.08.03-.02.11-.04.03-.02.06-.02.12-.04.19-.05.12-.02-.09,0,.06,0,.06,0,.13,0,.2,0,.09,0,.19.03.28.05.11.03.22.07.33.11.05.02.09.04.14.07.14.07.14.15.02-.06l-.1-.38c.08-.19.09-.21.02-.07-.02.04-.04.09-.06.13-.05.1-.1.21-.16.31-.09.17-.19.35-.29.52-.22.37-.45.73-.7,1.08-.23.32-.48.63-.75.92-.24.27-.3.29-.63.23-.42-.08-.84-.19-1.23-.36-.06-.02-.12-.05-.17-.08-.05-.02-.09-.05-.14-.08.04.03.04.03,0,0-.06-.06-.04-.03.05.09,0,.05,0,.03,0-.07,0-.1,0-.21,0-.31,0-.21.01-.41.03-.62,0-.08.02-.17.03-.25,0-.04.01-.08.02-.12.04-.12.03-.1-.05.06l-.21.11c.07,0,.13,0,.2,0,.11,0,.21,0,.32,0h.75c.97,0,.97-1.5,0-1.5h0Z"/>
      <path class="cls-1" d="M69.9,48.16c-.68-.08-1.38-.1-2.01.21s-1.01.93-1.19,1.57c-.1.37-.17.77,0,1.12s.47.57.81.73c.63.31,1.32.39,2.01.51.35.06.7.12,1.05.18.45.07.86.08,1.2-.27.24-.24.44-.55.64-.82.22-.29.43-.59.64-.9.39-.58.85-1.21,1.08-1.88.24-.71-.1-1.44-.76-1.77-.8-.39-1.63-.05-2.33.38-.63.38-1.25.87-1.55,1.56-.16.37-.11.81.27,1.03.32.19.86.1,1.03-.27.15-.35.38-.6.69-.82s.68-.48,1.06-.56c.04,0,.16-.01.09,0-.06,0,.05.01.06.02-.08-.02.09,0,.02,0,.04,0,.04.09.04.04,0,0-.04-.07-.02-.08.03,0,0-.01,0-.01s-.04.11-.05.12c-.21.44-.5.87-.76,1.28s-.53.79-.82,1.18c-.05.07-.39.41-.38.48-.02-.1.53,0,.31-.11-.04-.02-.13-.02-.18-.03-.16-.03-.31-.05-.47-.08-.5-.09-1.01-.16-1.51-.26-.18-.04-.38-.08-.55-.15,0,0-.27-.15-.27-.15,0,0-.03.3.05.18.06-.09.06-.25.09-.35.03-.1.04-.12.08-.2.09-.15.16-.26.33-.33.36-.16.88-.07,1.29-.02s.75-.38.75-.75c0-.45-.35-.7-.75-.75h0Z"/>
      <path class="cls-1" d="M69,45.34c-1.16-.58-2.61-.41-3.55.51-.54.52-.81,1.3-.39,1.98s1.17.86,1.91.97c.79.12,1.61.32,2.41.36s1.38-.69,1.92-1.16c.57-.49,1.18-.98,1.62-1.59.46-.64.56-1.67-.24-2.09-.64-.33-1.48-.33-2.18-.19s-1.4.52-1.92,1.04c-.69.68.37,1.74,1.06,1.06.33-.32.71-.53,1.16-.63.23-.05.47-.07.71-.05.09,0,.17.02.25.04.05.01.1.02.15.04.2.08.16,0-.12-.25-.05.03-.09.18-.13.23-.07.1-.17.18-.26.27-.22.22-.44.42-.67.63-.24.22-.49.43-.74.65-.12.1-.23.2-.35.3-.07.06-.22.23-.3.25.16-.04-.25-.09-.28-.09-.13-.02-.27-.04-.4-.06-.36-.05-.72-.11-1.08-.16-.29-.04-.59-.08-.88-.15-.07-.02-.35-.12-.34-.15.01-.1.23-.26.3-.31.15-.11.33-.19.51-.23.36-.1.74-.09,1.08.08.36.18.81.1,1.03-.27.19-.33.09-.84-.27-1.03h0Z"/>
      <path class="cls-1" d="M68.16,42.38c-1.19-.43-2.62.11-3.28,1.18-.42.68-.47,1.57.13,2.17.51.5,1.26.73,1.94.83.36.05.71.09,1.07.1s.76.04,1.11-.11c.33-.14.58-.41.82-.67s.49-.54.73-.82c.48-.56.92-1.15,1.34-1.76.23-.34.43-.67.37-1.1-.05-.4-.32-.72-.66-.92-.68-.4-1.55-.25-2.25.02-.74.29-1.41.73-1.95,1.32-.27.3-.3.76,0,1.06.28.28.79.3,1.06,0,.51-.57,1.28-1.09,2.04-1.14.07,0,.35.01.34.03,0,0-.06-.3-.06-.29-.01,0-.2.29-.22.31-.28.41-.57.8-.89,1.19s-.65.76-.99,1.12c-.08.08-.16.19-.25.26-.09.06-.02.01,0,.01-.17.06-.51-.01-.69-.03-.46-.03-.92-.08-1.35-.24-.14-.06-.37-.15-.45-.25-.05-.06-.03-.07.03-.2.28-.65,1.06-.86,1.66-.64.38.14.82-.16.92-.52.11-.42-.14-.78-.52-.92h0Z"/>
      <path class="cls-1" d="M67.25,39.73c-.7-.17-1.47-.29-2.17-.05-.64.22-1.22.72-1.41,1.39s.07,1.45.59,1.94,1.23.69,1.94.77,1.46.01,2.16-.17c.34-.09.68-.2.92-.47s.34-.7.5-1.03c.29-.63.66-1.2,1.05-1.77.42-.63.58-1.47-.06-2.01-.55-.47-1.39-.54-2.07-.35s-1.29.67-1.7,1.28c-.23.34-.07.83.27,1.03.37.22.8.07,1.03-.27.14-.21.41-.44.66-.54s.49-.13.76-.05c.02,0,.07.04.06.01,0-.02-.06-.19-.05-.18.03.01-.27.45-.3.49-.28.4-.54.82-.76,1.26-.11.21-.21.43-.3.64-.05.13-.11.25-.16.38-.02.04-.06.11-.06.15-.04.08-.02.07.05-.02.02-.04.05-.07.09-.08,0,.04-.51.14-.62.16-.22.04-.45.07-.67.07-.44.02-.87,0-1.28-.15-.27-.1-.51-.29-.57-.52-.02-.1-.04-.14.07-.29.03-.04.2-.18.3-.22.39-.17.93-.05,1.36.05.39.09.81-.12.92-.52s-.13-.83-.52-.92h0Z"/>
      <path class="cls-1" d="M66.03,36.2c-1.39-.18-3.12-.14-3.86,1.29-.16.31-.27.68-.22,1.03.07.48.41.76.85.92.7.26,1.47.23,2.21.21.33,0,.66-.02.98.03.45.06.85.16,1.29,0,.7-.26,1.31-.94,1.84-1.45s.99-1.06,1.19-1.75c.22-.78-.05-1.65-.88-1.91-.74-.23-1.51.06-2.18.36-.74.33-1.42.81-1.99,1.39-.68.68.38,1.74,1.06,1.06.64-.64,1.45-1.16,2.34-1.37.08-.02.3-.02.3-.02-.02.02.06-.04-.03-.04-.05,0-.01-.11-.05.08-.08.39-.39.71-.66.98-.38.39-.78.76-1.2,1.1-.15.12-.23.19-.42.17-.29-.03-.58-.1-.87-.12-.5-.03-1.01.01-1.51,0-.21,0-.42-.01-.63-.05-.09-.02-.25-.1-.34-.09l-.06-.02.24.34s0-.05.03-.08c.24-.31.46-.5.85-.59.55-.13,1.16-.02,1.72.05.4.05.75-.38.75-.75,0-.45-.35-.7-.75-.75h0Z"/>
      <path class="cls-1" d="M64.39,32.97c-.31-.01-.61-.01-.92,0-.35.01-.74,0-1.06.18-.56.3-.69,1.04-.7,1.62-.01.71.36,1.28,1.02,1.54.54.22,1.18.23,1.76.27.61.03,1.23.05,1.84.03.35-.02.65-.11.88-.38.22-.25.38-.55.54-.84.28-.5.58-1.06.7-1.62.16-.75-.15-1.42-.76-1.86-1.18-.86-2.76-.37-3.53.77-.23.34-.07.83.27,1.03.37.22.8.07,1.03-.27.11-.16.36-.37.54-.42.04-.01.08-.02.12-.03.02,0,.18-.03.1-.02-.03,0,.14,0,.18,0,.09,0,.02,0,0,0,.04,0,.08.02.12.03s.08.02.12.03c.11.03.02,0,.08.03.15.08.17.1.25.18.05.05.06.1.04.18-.07.36-.25.68-.42,1.01-.09.18-.19.36-.3.53-.05.08-.1.16-.15.24l-.03.04s-.03.05,0,.01c-.05-.02.42-.09.28-.14-.17-.05-.45,0-.63,0-.23,0-.46,0-.7,0-.43-.01-.86-.03-1.29-.09-.12-.02-.27-.04-.4-.07-.05-.01-.1-.03-.15-.05.07.03,0,0,0,0,0,.01-.05-.05,0,0,.05.06,0,0-.01-.03,0,.01.02.09.02,0-.01-.12-.02.17,0-.06,0-.04,0-.08,0-.12,0-.01.02-.16,0-.09-.01.07.01-.05.01-.05.01-.05.02-.1.03-.14,0-.03.02-.07.03-.1.03-.09,0-.05-.08.12l-.15.09s-.11-.01-.02,0c.06,0,.13,0,.19-.01.12,0,.24-.01.36-.01.27,0,.54,0,.82,0,.41.02.75-.36.75-.75,0-.42-.34-.73-.75-.75h0Z"/>
      <path class="cls-1" d="M66.1,32.57c.17-.93.13-1.9-.17-2.8-.15-.44-.34-.87-.59-1.25-.12-.19-.26-.39-.43-.54-.31-.28-.7-.36-1.1-.3-.45.07-.9.33-1.27.6-.4.29-.73.62-1.02,1.01s-.57.88-.56,1.39c.01.58.4,1.03.81,1.4.81.72,1.78,1.13,2.85,1.25.39.04.77-.38.75-.75-.02-.44-.33-.7-.75-.75-.03,0-.14-.03,0,0-.03,0-.06-.01-.1-.02-.08-.01-.15-.03-.23-.05-.17-.04-.34-.1-.5-.16-.03,0-.13-.06,0,0-.03-.01-.06-.03-.09-.04-.07-.03-.14-.07-.21-.1-.16-.08-.31-.18-.45-.28-.04-.03-.07-.05-.11-.08.01,0,.08.07.02.01-.06-.05-.12-.1-.18-.15-.07-.06-.13-.12-.19-.19-.02-.02-.05-.05-.07-.07-.02-.03-.05-.05-.07-.08l.03.04-.02-.03s-.03-.04,0,.02c-.01,0-.02-.13-.01-.03.01.12.01-.11,0,0-.01.09,0-.02.01-.03.01-.04.03-.09.04-.13-.01.03-.06.11.01,0,.05-.08.09-.15.14-.23.02-.04.05-.07.08-.11,0,0,.07-.09.02-.03-.06.07.03-.04.05-.05.02-.03.04-.05.07-.08.12-.13.24-.25.38-.37.03-.03.07-.06.1-.08-.01,0-.09.06-.02.02.06-.04.13-.09.19-.13.15-.09.3-.18.46-.25-.13.06.08-.02.12-.03.09-.03-.02,0-.05,0-.03,0-.06-.02-.09-.03-.1-.04-.07-.03-.02,0,.03.02.08.12,0-.01.05.08.1.15.15.23.08.13.16.27.23.42.02.04.04.08.06.12.01.02.05.13,0,0,.03.08.07.17.1.26.06.18.11.37.16.56.02.09.03.18.05.27.02.12,0-.11,0,0,0,.06.01.11.02.17.01.18.02.37.01.55,0,.1-.01.21-.02.31,0,.03,0,.07-.01.1.02-.17-.01.06-.02.07-.07.38.1.83.52.92.37.08.85-.11.92-.52h0Z"/>
    </g>
    <path class="cls-1" d="M43.13,94.06c16.54-7.17,32.86-14.85,48.93-23.03,2.24-1.14,4.47-2.29,6.7-3.45s4.45-2.39,6.96-2.87c.95-.18.55-1.63-.4-1.45-4.14.79-7.93,3.36-11.63,5.25-4.1,2.11-8.23,4.18-12.36,6.22-8.19,4.04-16.45,7.96-24.77,11.74-4.71,2.14-9.43,4.23-14.17,6.29-.88.38-.12,1.68.76,1.3h0Z"/>
    <path class="cls-1" d="M44.63,95.35c15.91-7.15,30.88-16.15,46.75-23.37,4.57-2.08,9.22-3.98,13.96-5.62.91-.31.52-1.76-.4-1.45-16.67,5.78-31.92,14.74-47.59,22.7-4.44,2.26-8.93,4.4-13.47,6.44-.88.4-.12,1.69.76,1.3h0Z"/>
  </g>
</svg>