<?xml version="1.0" encoding="UTF-8"?>
<svg id="resources" xmlns="http://www.w3.org/2000/svg" viewBox="0 0 142.68 144.26">
  <defs>
    <style>
      .cls-1 {
        fill: #a2c0e2;
      }

      .cls-2 {
        fill: #fdffea;
      }
    </style>
  </defs>
  <rect class="cls-2" width="142.68" height="144.26"/>
  <g>
    <g>
      <path class="cls-1" d="M44.73,71.44c1.17-6.89,5.19-12.66,8.84-18.45.94-1.49,1.86-2.98,2.72-4.51.78-1.4,1.85-3,2.08-4.61.47-3.37-3.81-3.64-5.92-2.36-2.91,1.77-3.89,5.7-4.91,8.72-1.28,3.78-2.33,7.63-3.16,11.54-.42,1.99-.78,3.99-1.08,6.01-.12.84-.24,1.68-.34,2.52-.09.7-.37,1.63.17,2.22.86.95,2.2.11,3.04-.41,1.57-.98,3.11-2,4.6-3.09,5.54-4.09,10.47-9.43,12.15-16.28.7-2.84,1.06-6.41-.23-9.14-.51-1.09-1.39-2.06-2.61-2.31-1.52-.3-2.83.59-3.96,1.48-2.79,2.21-6.17,4.38-7.64,7.74-1.58,3.62-2.65,7.51-3.94,11.24-.82,2.39-1.83,4.92-1.76,7.5.04,1.4.89,3.02,2.37,1.95,1.6-1.16,2.95-2.79,4.28-4.23,1.47-1.6,2.94-3.24,4.24-4.98,2.05-2.75,3.93-5.71,5.3-8.85.7-1.6,1.27-3.24,1.61-4.95.27-1.36.7-3.17.26-4.53-.35-1.09-1.4-1.53-2.41-1.08-.88.39-.12,1.68.76,1.3.35-.15.22,2.03.2,2.26-.08.76-.21,1.52-.39,2.27-.35,1.5-.87,2.97-1.5,4.37-1.2,2.66-2.77,5.13-4.44,7.51-2.06,2.93-4.56,5.63-7.09,8.16-.48.48-.97.99-1.5,1.41-.14.11-.3.2-.43.31.1-.09.34.14.37-.06.03-.17-.12-.52-.13-.72-.13-1.88.54-3.84,1.14-5.59,1.07-3.11,2.14-6.23,3.22-9.34.47-1.38.88-2.82,1.58-4.11.77-1.43,1.97-2.44,3.21-3.45,1.19-.98,2.38-1.96,3.59-2.93s2.85-1.92,4-.31c1.52,2.13,1.11,5.69.6,8.08-1.23,5.78-4.96,10.55-9.41,14.27-2.21,1.85-4.64,3.61-7.15,5.04-.92.52-.73.46-.62-.51.11-.87.22-1.73.35-2.59.24-1.62.53-3.24.85-4.85.63-3.14,1.41-6.26,2.34-9.33.88-2.89,1.71-6.08,3.21-8.72.82-1.45,2.19-2.87,3.99-2.83,3,.06,1.06,3.21.3,4.63-1.44,2.68-3.09,5.23-4.73,7.8-3.24,5.09-6.44,10.36-7.46,16.41-.16.94,1.29,1.35,1.45.4h0Z"/>
      <path class="cls-1" d="M42.21,71.8c-1.84,2.44-3.93,4.61-5.97,6.89-1.77,1.97-3.32,4.25-3.51,6.97-.07.92-.08,2.64.99,3.04,1.16.43,2.19-1.13,2.85-1.84,1.92-2.07,3.66-4.3,5.21-6.66,1.66-2.53,3.75-5.53,3.78-8.67.01-.97-1.49-.97-1.5,0-.02,1.61-.73,3.04-1.49,4.42s-1.55,2.68-2.41,3.97-1.71,2.43-2.65,3.58c-.49.6-.99,1.19-1.51,1.76-.48.54-1.22,1.08-1.59,1.69-.26.13-.28.22-.08.26-.05-.2-.08-.4-.09-.6-.03-.36-.03-.72,0-1.08.08-.77.31-1.54.62-2.24.59-1.32,1.49-2.47,2.44-3.54,2.12-2.37,4.29-4.64,6.2-7.19.58-.77-.72-1.52-1.3-.76h0Z"/>
    </g>
    <path class="cls-1" d="M64.79,79.15c-.74,6.14,2.77,11.53,6.76,15.84,1.91,2.06,3.98,4.01,6.54,5.23s5.45,1.82,8.28,2.33c5.37.97,11.44,2.02,16.45-.78,4.17-2.32,6.42-6.93,6.99-11.53.74-6-1.43-11.86-3.71-17.3-.38-.9-.67-2.18-1.49-2.79-1.11-.83-2.96-.27-4.22-.16-3.46.3-6.92.59-10.38.89-6.35.54-12.75,1.09-18.94,2.67-1.94.5-4.9,1.1-5.58,3.35-.72,2.36,1.63,3.88,3.61,4.26,6.35,1.24,13.26.66,19.49-.92,5.44-1.39,11.89-3.62,15.56-8.15.6-.74-.45-1.81-1.06-1.06-2.83,3.5-7.38,5.38-11.52,6.77-5.02,1.68-10.3,2.52-15.59,2.46-2.39-.03-5.32.05-7.58-.83-1.2-.47-2.04-1.71-1-2.79.85-.88,2.27-1.16,3.4-1.46,5.43-1.46,11.04-2.08,16.63-2.57,2.84-.25,5.69-.49,8.53-.73,1.4-.12,2.8-.24,4.2-.36.74-.06,1.48-.13,2.22-.19.78-.06,1.25-.13,1.68.58.67,1.12,1.09,2.58,1.57,3.79.51,1.29.99,2.58,1.4,3.9.83,2.63,1.43,5.36,1.45,8.13.02,4.26-1.42,8.81-4.76,11.63-3.99,3.36-9.64,2.94-14.44,2.18-2.75-.44-5.55-.88-8.2-1.74-2.85-.92-5.18-2.52-7.28-4.64-4.24-4.27-8.26-9.66-7.5-16.01.12-.96-1.39-.95-1.5,0h0Z"/>
  </g>
</svg>