<?xml version="1.0" encoding="UTF-8"?>
<svg id="resources" xmlns="http://www.w3.org/2000/svg" viewBox="0 0 142.68 144.26">
  <defs>
    <style>
      .cls-1 {
        fill: #a2c0e2;
      }

      .cls-2 {
        fill: #fdffea;
      }
    </style>
  </defs>
  <rect class="cls-2" width="142.68" height="144.26"/>
  <g>
    <g>
      <path class="cls-1" d="M79.49,50.07c.43,8.61-.34,17.19-.87,25.78-.27,4.4-.47,8.8-.42,13.21.04,3.32.07,6.71.67,9.99.51,2.8,2.11,5.05,4.74,6.28,1.33.62,2.92.8,4.35,1.11,1.57.33,3.15.57,4.74.76,7.11.84,14.43.66,21.52-.34,1.02-.14,2.04-.04,2.42-1.13.31-.87.36-1.89.47-2.8.32-2.54.61-5.09.9-7.63.89-7.64,1.35-15.31,1.36-23,0-3.92-.08-7.84-.21-11.75-.07-2.16-.03-4.36-.26-6.51-.16-1.44-.89-2.45-2.31-2.82-1.86-.49-4.01-.34-5.91-.42-2.29-.09-4.58-.15-6.87-.18-4.41-.05-8.84-.03-13.25.22-1.39.08-2.63.43-3.19,1.83-.7,1.76-.73,3.94-.97,5.81-.54,4.34-.88,8.7-1.05,13.07-.37,9.01-.08,18.03.33,27.03.1,2.19.21,4.38.32,6.57.05.96,1.55.97,1.5,0-.81-16.35-1.64-32.86.74-49.12.12-.82.18-1.7.42-2.5.38-1.26,1.52-1.18,2.63-1.22,2.04-.08,4.09-.14,6.13-.17,4.09-.06,8.18-.02,12.27.13,1.97.07,3.99.06,5.94.31,1.15.15,1.69.67,1.79,1.87.09,1.03.09,2.07.12,3.09.14,3.75.26,7.5.3,11.26.08,6.85-.13,13.69-.73,20.51-.31,3.49-.78,6.96-1.17,10.45-.2,1.76-.27,3.57-.69,5.3-.02.08-.04.34-.11.4.37-.32-.53-.15-.64-.14-.83.13-1.65.23-2.48.33-1.6.18-3.21.31-4.83.41-3.45.2-6.92.21-10.38.01-3.19-.18-6.37-.56-9.48-1.29-1.44-.34-2.83-.49-4.06-1.36-1.1-.78-2.07-1.7-2.53-2.98-1.05-2.9-.95-6.37-1.02-9.42-.09-3.78,0-7.57.18-11.35.39-7.9,1.19-15.78,1.22-23.69,0-1.96-.04-3.92-.14-5.88-.05-.96-1.55-.97-1.5,0h0Z"/>
      <path class="cls-1" d="M118.31,51.71c-.82-2.82-2.67-5.15-4.65-7.26-.49-.53-1.29-1.1-1.64-1.72-.23-.41-.23-.87-.56-1.24-.71-.79-1.75-.35-2.65-.25-1.67.18-3.47-.04-5.15-.05-1.95-.01-3.91,0-5.86.03-3.75.06-7.49.2-11.23.41-.52.03-.81.45-.72.95.54,3.16,1.23,6.29,1.77,9.45.16.95,1.61.55,1.45-.4-.54-3.16-1.23-6.29-1.77-9.45l-.72.95c6.67-.37,13.35-.51,20.02-.4.71.01,1.45.09,2.16.03.34-.03,1.14-.36,1.43-.23.35.16.48.89.7,1.19.33.45.79.83,1.18,1.23,2,2.08,3.98,4.35,4.8,7.17.27.93,1.72.53,1.45-.4h0Z"/>
      <path class="cls-1" d="M79.76,50.23c2.83-.02,5.59.83,7.93,2.42.8.54,1.55-.76.76-1.3-2.55-1.73-5.61-2.64-8.69-2.62-.96,0-.97,1.51,0,1.5h0Z"/>
      <path class="cls-1" d="M80.14,49.67c1.46-1.07,2.51-2.53,3.58-3.97.98-1.32,2.01-2.69,3.48-3.5.85-.47.09-1.76-.76-1.3-1.57.86-2.7,2.28-3.76,3.69-.99,1.33-1.95,2.79-3.3,3.78-.33.24-.49.65-.27,1.03.19.32.7.51,1.03.27h0Z"/>
      <path class="cls-1" d="M87.73,41.62c-.01-.6-.11-1.27-.03-1.86.1-.75.25-.61,1.03-.75,1.12-.2,2.24-.37,3.37-.5,2.17-.26,4.35-.4,6.53-.42s4.37.06,6.54.26c1.13.1,2.26.24,3.39.41.21.03,1.29.09,1.37.16.13.12-.09,1.42-.1,1.63-.06.96,1.44.96,1.5,0,.06-.86.44-2.16-.4-2.75s-2.47-.57-3.51-.7c-2.91-.37-5.85-.54-8.78-.51-2.85.04-5.7.27-8.52.69-.99.15-2.87.11-3.59.92s-.31,2.49-.29,3.43,1.52.97,1.5,0h0Z"/>
      <path class="cls-1" d="M103.98,69.63c.16-1.16.1-2.25-.27-3.37-.23-.68-1.25-.75-1.45,0-.29,1.08-.68,2.09-1.2,3.08h1.3c-.74-.97-1.47-1.93-2.21-2.9-.46-.61-1.31-.39-1.4.38-.13,1.08-.17,2.15-.11,3.24.32-.24.63-.48.95-.72-1.9-.42-3.81-.29-5.61.46l.58.08c-1.11-.81-2.35-1.32-3.71-1.5-.36-.05-.86.08-.92.52-.25,1.68-.47,3.5.53,4.99.98,1.46,2.55,1.63,4.18,1.5l-.75-.75c.09,2,.61,4.05,1.88,5.63,1.52,1.88,3.67,2.18,5.96,2.29,2.38.11,4.97-.14,6.74-1.92s1.48-4.16.81-6.41l-.34.85c2.12-1.59,3.39-3.9,3.55-6.55.02-.31-.25-.66-.55-.72-1.65-.36-2.84.11-4.21.96-.7.43-1.45-.14-2.26-.24-.87-.12-1.72-.03-2.56.2-.93.26-.53,1.71.4,1.45.88-.24,1.75-.29,2.63-.03.58.17,1.12.55,1.76.41.59-.13.94-.67,1.45-.96.73-.42,1.58-.52,2.4-.34l-.55-.72c-.13,2.07-1.14,4-2.81,5.25-.27.2-.45.5-.34.85.59,1.98.95,4.03-.96,5.4-1.59,1.15-3.67,1.11-5.54,1.01-1.8-.1-3.42-.36-4.55-1.9-.95-1.29-1.33-2.93-1.39-4.5-.02-.38-.33-.78-.75-.75-1.16.09-2.39.15-3.04-1.01-.61-1.08-.4-2.42-.22-3.59l-.92.52c.81.11,1.59.31,2.32.69.53.27.98.83,1.61.73.73-.11,1.43-.52,2.19-.61.88-.11,1.76-.04,2.62.16.45.1.98-.21.95-.72-.06-1.09-.02-2.16.11-3.24-.47.13-.93.25-1.4.38.74.97,1.47,1.93,2.21,2.9.32.42,1,.55,1.3,0,.58-1.1,1.03-2.24,1.35-3.44h-1.45c.28.85.4,1.68.27,2.57-.13.94,1.31,1.35,1.45.4h0Z"/>
      <path class="cls-1" d="M95.31,80.47c.28,2.27-.69,5.06,1.45,6.7.84.64,1.88.86,2.91.97,1.35.15,2.73.17,4.09.11s2.76-.2,4.12-.42c1.09-.18,2.22-.3,2.75-1.42.52-1.1.35-2.43.09-3.57-.32-1.36-.81-2.68-1.35-3.96-.38-.88-1.67-.12-1.3.76.43,1,.79,2.03,1.07,3.08.23.85.65,2.28.12,3.11-.24.37-.83.39-1.23.46-.51.09-1.03.17-1.55.24-1.08.14-2.17.21-3.26.23s-2.09,0-3.13-.09c-.81-.07-1.74-.17-2.41-.68-1.56-1.18-.67-3.89-.87-5.53-.12-.95-1.62-.96-1.5,0h0Z"/>
      <path class="cls-1" d="M105.44,78.64c.97,0,.97-1.5,0-1.5s-.97,1.5,0,1.5h0Z"/>
      <path class="cls-1" d="M99.28,78.58c.97,0,.97-1.5,0-1.5s-.97,1.5,0,1.5h0Z"/>
      <path class="cls-1" d="M100.16,85.89c.97,0,.97-1.5,0-1.5s-.97,1.5,0,1.5h0Z"/>
      <path class="cls-1" d="M105.75,85.54c.97,0,.97-1.5,0-1.5s-.97,1.5,0,1.5h0Z"/>
      <path class="cls-1" d="M100.64,75.55c-.77-.16-1.45.07-2.17.29-.13.04-.26.07-.39.1-.04,0-.07.01-.11.02.11-.01.12-.02.04,0-.06,0-.12.01-.19.01s-.12,0-.18,0c-.08,0-.07,0,.05,0-.03,0-.07-.01-.1-.02-.03,0-.07-.02-.1-.03.1.05.11.05.04.02-.06-.04-.12-.07-.17-.11-.32-.23-.85-.06-1.03.27-.21.39-.07.78.27,1.03.57.42,1.35.4,2.01.24.31-.07.6-.19.9-.27.08-.02.17-.05.25-.07.04,0,.3-.08.11-.03.07-.02.17-.01.25-.01.04,0,.08,0,.13,0-.1-.01-.1-.01-.01,0,.38.08.83-.11.92-.52.09-.38-.11-.84-.52-.92h0Z"/>
      <path class="cls-1" d="M103.84,76.57c.51.28,1.07.33,1.64.26.3-.04.6-.09.9-.14.08-.01.07-.01-.04,0,.04,0,.07,0,.11-.01.05,0,.11,0,.16-.01.07,0,.14,0,.21,0,.04,0,.07,0,.11,0-.11-.02-.12-.02-.04,0,.2.04.39.03.58-.08.16-.09.3-.27.34-.45.08-.37-.11-.85-.52-.92-.3-.05-.59-.07-.89-.04s-.62.09-.92.14c-.02,0-.05,0-.07.01-.08.01-.06,0,.06,0-.05,0-.11.01-.17.02-.11,0-.22.01-.33.01-.04,0-.13-.02-.16-.01.12.02.14.02.06,0-.02,0-.05,0-.07-.01-.05-.01-.1-.03-.16-.04-.07-.03-.06-.02.05.02-.03-.01-.06-.03-.08-.04-.34-.19-.83-.1-1.03.27s-.1.83.27,1.03h0Z"/>
    </g>
    <g>
      <path class="cls-1" d="M31.76,73.45c-.16,6.01-.31,12.03.1,18.04.2,2.89.51,5.8,1.04,8.65.15.83.39,1.38,1.18,1.76,1.3.63,2.98.84,4.39,1.06,5.51.87,11.09.34,16.59-.33.84-.1,2.17-.02,2.8-.7.77-.83.72-2.66.87-3.73.39-2.76.62-5.53.66-8.32.05-3.26-.15-6.53-.58-9.76-.21-1.55-.72-3.19-.75-4.75-.03-1.92,3.3-2.33,4.71-2.41.53-.03.98-.62.65-1.13-1.1-1.67-2.9-2.37-4.84-2.48-2.72-.15-5.5.33-8.23.31-5.62-.04-11.23-.68-16.85-.7-1.3,0-2.61,0-3.9.11-.9.07-1.75.22-2.35.94s-.95,1.83-1.3,2.72c-.51,1.28-.95,2.58-1.31,3.91-.67,2.42-1.08,4.91-1.26,7.41-.05.7-.22,1.66.48,2.11.72.46,1.43-.16,1.86-.68,2.9-3.54,3.34-8.66,7.06-11.59.76-.6-.31-1.65-1.06-1.06-2.59,2.05-3.71,5.17-5.06,8.07-.32.7-.66,1.39-1.05,2.06-.2.36-.42.71-.65,1.04-.08.12-.33.36-.36.49-.22.15-.21.26.04.34.25.26.32.15.22-.32.26-.99.18-2.19.33-3.22s.37-2.11.62-3.14c.52-2.16,1.23-4.29,2.15-6.31.62-1.36,1.56-1.27,2.88-1.32,1.14-.04,2.28-.05,3.42-.04,4.57.05,9.12.49,13.68.64,2.52.08,5.04.08,7.56-.12,2.25-.17,5.21-.61,6.66,1.59l.65-1.13c-1.83.12-4.76.56-5.82,2.28-.49.79-.42,1.74-.27,2.61.24,1.48.53,2.95.72,4.44.71,5.63.68,11.38-.11,17-.09.63-.19,1.26-.3,1.89-.16.91-.28,1.16-1.24,1.35-1.36.27-2.79.34-4.16.48-2.77.28-5.56.46-8.35.38-2.6-.08-5.5-.26-7.96-1.18-.74-.28-.84-.45-.98-1.21-.13-.72-.24-1.44-.34-2.16-.22-1.54-.38-3.08-.51-4.63-.52-6.4-.35-12.83-.19-19.25.03-.97-1.47-.97-1.5,0h0Z"/>
      <path class="cls-1" d="M52.62,91.67c.19.07.39.1.59.12s.4,0,.6-.05c.1-.02.18-.07.26-.13.08-.05.15-.12.19-.21.05-.09.08-.18.09-.28.02-.1.02-.2-.01-.3l-.08-.18c-.07-.11-.16-.2-.27-.27l-.18-.08c-.13-.04-.27-.04-.4,0-.03,0-.06,0-.08.01l.2-.03c-.12.02-.24.02-.36,0l.2.03c-.12-.02-.23-.05-.34-.09-.1-.03-.2-.04-.3-.01-.1,0-.19.03-.28.09-.09.05-.16.11-.21.19-.07.07-.11.16-.13.26l-.03.2c0,.14.03.26.1.38l.12.15c.09.09.2.16.33.19h0Z"/>
      <path class="cls-1" d="M52.44,89.04h.88c.1,0,.2-.02.29-.06.09-.03.17-.08.24-.16.07-.07.12-.15.16-.24.05-.09.07-.19.06-.29,0-.19-.07-.4-.22-.53s-.33-.22-.53-.22h-.88c-.1,0-.2.02-.29.06-.09.03-.17.08-.24.16-.07.07-.12.15-.16.24-.05.09-.07.19-.06.29,0,.19.07.4.22.53s.33.22.53.22h0Z"/>
      <path class="cls-1" d="M52.54,86.21h.78c.1,0,.2-.02.29-.06.09-.03.17-.08.24-.16.07-.07.12-.15.16-.24.05-.09.07-.19.06-.29l-.03-.2c-.04-.13-.1-.24-.19-.33-.15-.13-.33-.22-.53-.22h-.78c-.1,0-.2.02-.29.06-.09.03-.17.08-.24.16-.07.07-.12.15-.16.24-.05.09-.07.19-.06.29l.03.2c.04.13.1.24.19.33.15.13.33.22.53.22h0Z"/>
      <path class="cls-1" d="M52.15,82.99h.88c.1,0,.2-.02.29-.06.09-.03.17-.08.24-.16.07-.07.12-.15.16-.24.05-.09.07-.19.06-.29,0-.19-.07-.4-.22-.53s-.33-.22-.53-.22h-.88c-.1,0-.2.02-.29.06-.09.03-.17.08-.24.16-.07.07-.12.15-.16.24-.05.09-.07.19-.06.29,0,.19.07.4.22.53s.33.22.53.22h0Z"/>
      <path class="cls-1" d="M52.15,79.96h.59c.1,0,.2-.02.29-.06.09-.03.17-.08.24-.16.07-.07.12-.15.16-.24.05-.09.07-.19.06-.29l-.03-.2c-.04-.13-.1-.24-.19-.33l-.15-.12c-.12-.07-.24-.1-.38-.1h-.59c-.1,0-.2.02-.29.06-.09.03-.17.08-.24.16-.07.07-.12.15-.16.24-.05.09-.07.19-.06.29l.03.2c.04.13.1.24.19.33l.15.12c.12.07.24.1.38.1h0Z"/>
    </g>
  </g>
</svg>