<?xml version="1.0" encoding="UTF-8"?>
<svg id="resources" xmlns="http://www.w3.org/2000/svg" viewBox="0 0 142.68 144.26">
  <defs>
    <style>
      .cls-1 {
        fill: #4b260c;
      }

      .cls-2 {
        fill: #f5e188;
      }
    </style>
  </defs>
  <rect class="cls-2" width="142.68" height="144.26"/>
  <g>
    <path class="cls-1" d="M67.37,39.45c7.27.61,14.73,1.57,21.38,4.76,3.4,1.63,6.5,3.8,9.2,6.42,2.93,2.84,4.63,6.08,5.82,9.94,1.09,3.51,1.92,7.29,1.61,10.98-.33,3.95-.96,7.92-1.99,11.75-1.57,5.8-4.25,11.06-9.2,14.61s-10.84,6.29-16.96,6.97c-3.79.42-7.42-.17-11.1-1.06s-6.94-1.94-10.2-3.46c-6.69-3.12-12.25-8.07-15.44-14.79s-4.07-14.86-2.55-22.24c1.43-6.93,5.15-13.7,10.42-18.46,2.41-2.18,5.24-3.91,8.36-4.85,2.7-.81,5.39-.86,8.18-.71l2.47.13c.96.05.96-1.45,0-1.5-2.19-.12-4.43-.35-6.62-.18-3.32.25-6.54,1.31-9.39,3.02-6.2,3.71-10.72,10.17-13.3,16.82-2.81,7.26-3.05,15.53-.99,23.01s6.6,13.92,13.08,18.24c3.15,2.1,6.64,3.67,10.22,4.88s7.39,2.23,11.17,2.66c7.18.81,14.41-1.6,20.5-5.27,1.79-1.07,3.54-2.27,5.13-3.63,2.57-2.22,4.42-5.18,5.76-8.27,1.61-3.72,2.57-7.7,3.21-11.7s1.05-7.74.43-11.67-1.7-7.8-3.53-11.21-5.17-6.41-8.4-8.71c-6.22-4.42-13.62-6.37-21.09-7.34-2.05-.27-4.11-.47-6.17-.64-.96-.08-.96,1.42,0,1.5Z"/>
    <path class="cls-1" d="M41.74,61.84c6.42-.65,12.22,3.45,16.55,7.76,4.65,4.65,8.73,10.47,10.94,16.7,1.59,4.48,2.16,9.23,3.31,13.82.18.71,1.27.71,1.45,0,2.39-9.5,5.27-18.88,8.71-28.05,1.57-4.19,3.33-8.32,5.63-12.17,1.13-1.9,2.39-3.75,3.83-5.43s3.24-3.33,5.57-3.46c.96-.05.97-1.55,0-1.5-3.37.19-5.74,2.7-7.69,5.21-2.24,2.89-4.07,6.07-5.63,9.37-3.32,7.02-5.76,14.51-8.04,21.92-1.4,4.53-2.67,9.1-3.83,13.7h1.45c-1.08-4.31-1.65-8.74-3.02-12.97-1.07-3.28-2.68-6.39-4.52-9.3-3.71-5.85-8.63-11.5-14.8-14.83-3.03-1.64-6.43-2.64-9.9-2.29-.95.1-.96,1.6,0,1.5h0Z"/>
    <g>
      <path class="cls-1" d="M84.99,67.98c.11-1.62.61-3.18,1.2-4.7,1.25-3.22,2.9-6.27,4.92-9.07,1.54-2.13,3.4-4.2,5.88-5.06-3.77.97-7.73,2.05-10.47,4.81-1.37,1.38-2.36,3.12-3.82,4.42l-.35.03c.37-3.96,4.89-11.89,8.46-13.65s10.13-1.39,13.25-3.86c-2.72,5.31-1.24,11.85-3.13,17.5-2.15,6.43-10.24,10.9-16.99,10.31l1.05-.74Z"/>
      <path class="cls-1" d="M85.74,67.98c.34-3.72,2.26-7.42,4.16-10.57,1.76-2.93,3.94-6.27,7.29-7.53.89-.33.55-1.69-.4-1.45-2.97.77-6.03,1.58-8.64,3.27-1.26.82-2.32,1.83-3.27,2.99-.53.65-1.02,1.33-1.56,1.97-.35.41-.75.99-.98,1.01l.75.75c.26-2.35,1.42-4.66,2.58-6.68s2.7-4.41,4.72-5.85,4.62-1.58,6.89-1.98c2.44-.42,5.12-.83,7.16-2.36l-1.03-1.03c-1.48,3.02-1.8,6.31-2.02,9.63s-.35,7.08-2.14,10.11c-3.01,5.12-9.48,8.13-15.31,7.69l.38,1.4,1.05-.74c.78-.55.03-1.85-.76-1.3l-1.05.74c-.62.43-.38,1.34.38,1.4,5.98.45,12.33-2.48,15.87-7.32,4.49-6.13,1.67-14.29,4.89-20.86.29-.6-.37-1.52-1.03-1.03-4.29,3.22-10.64,1.4-14.8,4.93-1.98,1.68-3.51,3.99-4.75,6.24s-2.26,4.52-2.53,6.99c-.04.38.38.78.75.75,1.18-.1,1.87-1.23,2.57-2.1,1.01-1.27,1.96-2.56,3.26-3.56,2.61-1.99,5.89-2.83,9.01-3.64l-.4-1.45c-3.63,1.36-5.99,4.65-7.95,7.83-2.15,3.49-4.22,7.58-4.6,11.71-.09.96,1.41.95,1.5,0Z"/>
    </g>
  </g>
</svg>