<?xml version="1.0" encoding="UTF-8"?>
<svg id="resources" xmlns="http://www.w3.org/2000/svg" viewBox="0 0 142.68 144.26">
  <defs>
    <style>
      .cls-1 {
        fill: #4b260c;
      }

      .cls-2 {
        fill: #f5e188;
      }
    </style>
  </defs>
  <rect class="cls-2" width="142.68" height="144.26"/>
  <g>
    <g>
      <path class="cls-1" d="M83.52,32.94c-7.56-.37-15.12-.53-22.68-.76-3.65-.11-7.29-.23-10.93-.4-1.4-.07-3.06-.39-4.41.16-1.45.59-1.83,2.06-2.2,3.43-2.16,7.92-3.08,16.04-3.28,24.23s-.15,16.82-.2,25.23c-.06,9.65-.12,19.31-.17,28.96,0,.43.35.71.75.75,7.26.65,14.54,1.05,21.82,1.16,3.56.06,7.12.05,10.68-.02,1.74-.04,3.48-.09,5.21-.15,1.51-.06,3.22.08,4.67-.44,2.67-.96,2.98-4.78,3.47-7.14.67-3.22,1.1-6.48,1.38-9.75.59-6.85.52-13.75.45-20.62-.08-7.96-.35-15.92-.4-23.89,0-.96-1.51-.97-1.5,0,.08,13.25.86,26.54.25,39.79-.15,3.31-.42,6.62-.9,9.9-.23,1.55-.5,3.1-.83,4.63s-.54,3.27-1.28,4.61c-.84,1.54-2.82,1.3-4.32,1.36-1.82.08-3.64.14-5.46.18-3.39.08-6.79.1-10.18.06-7.7-.09-15.39-.49-23.06-1.18l.75.75c.1-16.29.17-32.58.3-48.86.06-7.99.39-15.95,2.02-23.79.39-1.88.84-3.75,1.35-5.6.26-.92.45-2,1.51-2.3.75-.21,1.62-.06,2.38-.02,3.53.18,7.06.3,10.59.41,8.08.25,16.16.41,24.23.81.96.05.96-1.45,0-1.5h0Z"/>
      <path class="cls-1" d="M41.29,67.34c8.25-.43,16.51-.52,24.78-.42,4.05.05,8.1.14,12.14.25,3.02.08,6.09-.05,9.09.31.96.12.95-1.38,0-1.5-2.93-.36-5.91-.23-8.85-.31-4.13-.11-8.26-.21-12.39-.26-8.26-.1-16.52,0-24.78.42-.96.05-.97,1.55,0,1.5h0Z"/>
      <path class="cls-1" d="M47.41,49.81v9.65c0,.97,1.5.97,1.5,0v-9.65c0-.97-1.5-.97-1.5,0h0Z"/>
      <path class="cls-1" d="M47.53,73.94c0,2.53,0,5.07,0,7.6,0,.97,1.5.97,1.5,0,0-2.53,0-5.07,0-7.6,0-.97-1.5-.97-1.5,0h0Z"/>
    </g>
    <g>
      <path class="cls-1" d="M83.29,34.35c.56.29,1.03.67,1.5,1.1.25.23.49.46.73.69.36.32.73.43,1.19.28,1.36-.45,2.68-1.11,3.89-1.88.81-.52.06-1.81-.76-1.3-.59.37-1.2.72-1.83,1.02-.28.14-.57.27-.86.39-.15.06-.3.12-.45.17-.13.05-.33.17-.47.16l.38.1c-.15-.08-.4-.36-.57-.52-.19-.18-.38-.35-.58-.52-.44-.38-.91-.73-1.43-1-.86-.44-1.62.85-.76,1.3h0Z"/>
      <g>
        <path class="cls-1" d="M99.54,37.75c2.86,5.32,2.89,12.6-1.52,17.12s-11.07,5.16-16.49,2.68c-2.83-1.3-4.98-3.39-6.63-6.01-.89-1.41-1.82-2.92-2.31-4.53-.55-1.84-.37-3.75.15-5.57.83-2.96,2.36-6.03,4.45-8.3,2.44-2.64,5.47-3.34,8.98-3.03s7.12.9,9.65,3.31c1.37,1.31,2.61,2.8,3.71,4.33.56.78,1.86.03,1.3-.76-1.18-1.64-2.48-3.24-3.95-4.64-2.4-2.29-5.63-3.1-8.84-3.54-3.62-.5-7.26-.53-10.29,1.79-2.72,2.08-4.48,5.23-5.74,8.36-1.48,3.68-1.71,7.27.16,10.84,1.65,3.15,3.7,6.08,6.73,8.02,5.48,3.49,13.02,3.57,18.32-.31,6.48-4.74,7.25-13.76,3.61-20.52-.46-.85-1.75-.09-1.3.76Z"/>
        <path class="cls-1" d="M85.92,33.42c-.21,6.68-.13,13.36.25,20.03.05.96,1.55.97,1.5,0-.38-6.67-.46-13.35-.25-20.03.03-.97-1.47-.96-1.5,0h0Z"/>
        <path class="cls-1" d="M77.9,38.12c1.6.65,2.95,1.8,4.3,2.84,1.45,1.12,2.89,2.26,4.31,3.42,2.82,2.28,5.58,4.63,8.29,7.03.72.64,1.79-.42,1.06-1.06-2.88-2.55-5.81-5.03-8.8-7.44-1.42-1.14-2.85-2.27-4.29-3.38s-2.81-2.17-4.48-2.85c-.89-.36-1.28,1.09-.4,1.45h0Z"/>
        <path class="cls-1" d="M77.24,50.13c3.32-1.23,6.29-3.38,9.21-5.35,3.08-2.08,6.11-4.23,9.13-6.38.78-.56.03-1.86-.76-1.3-2.93,2.09-5.86,4.17-8.85,6.19s-5.85,4.18-9.14,5.39c-.9.33-.51,1.78.4,1.45h0Z"/>
        <path class="cls-1" d="M91.91,35.99c-.05.54-.06,1.08-.01,1.62.02.3.06.6.11.9.04.27.08.57.24.8.19.27.47.42.74.6.23.15.45.29.68.44.48.31.96.62,1.44.93.33.21.84.08,1.03-.27.2-.37.08-.8-.27-1.03-.42-.27-.83-.54-1.25-.8-.2-.13-.4-.26-.61-.39-.1-.06-.2-.13-.3-.19-.06-.04-.26-.22-.33-.21,0,0,.17.16.15.18.01-.01-.03-.13-.03-.15-.02-.11-.04-.23-.06-.35-.02-.13-.04-.38-.06-.58-.03-.5-.02-.99.02-1.49.04-.39-.37-.77-.75-.75-.44.02-.71.33-.75.75h0Z"/>
        <path class="cls-1" d="M97.16,47.82c-1.32-.04-2.65-.07-3.95.24-.34.08-.52.4-.55.72-.11,1.08-.17,2.17-.19,3.26,0,.39.35.77.75.75s.74-.33.75-.75c.02-1.09.08-2.18.19-3.26l-.55.72c.15-.03.29-.06.44-.09.07-.01.15-.02.22-.03-.14.02.09,0,.1-.01.3-.03.61-.05.91-.06.62-.02,1.25,0,1.87.01.39.01.77-.35.75-.75s-.33-.74-.75-.75h0Z"/>
        <path class="cls-1" d="M84.34,53.14c1.05-.51,2.01-1.19,2.86-1.99l-.91.12c.98.59,1.95,1.21,2.9,1.86.33.23.83.06,1.03-.27.22-.37.07-.8-.27-1.03-.95-.65-1.91-1.27-2.9-1.86-.29-.18-.67-.11-.91.12-.76.71-1.62,1.3-2.56,1.76-.36.18-.46.69-.27,1.03.22.37.66.45,1.03.27h0Z"/>
        <path class="cls-1" d="M76.87,46.59c.45.19.89.41,1.3.66s.8.52,1.11.78c.06.05.17.19.24.21-.07-.02-.04-.35-.09-.2-.02.05,0,.13-.01.18-.02.27-.03.54-.05.82-.03.58-.07,1.15-.1,1.73-.02.39.36.77.75.75.43-.02.72-.33.75-.75.04-.63.08-1.25.11-1.88.02-.29.06-.6.05-.89,0-.38-.18-.68-.46-.92-.85-.74-1.8-1.34-2.84-1.78-.36-.15-.82-.12-1.03.27-.17.32-.12.86.27,1.03h0Z"/>
        <path class="cls-1" d="M77.56,40.96c.65.03,1.3-.04,1.93-.2s1.26-.4,1.79-.75c.37-.25.48-.59.54-1.01.05-.34.09-.68.14-1.02.1-.69.19-1.39.29-2.08.05-.39-.09-.82-.52-.92-.35-.08-.86.11-.92.52-.09.62-.17,1.24-.26,1.86-.04.3-.08.59-.12.89-.02.15-.04.3-.06.44,0,0-.03.25-.04.25-.03,0,.23-.22.15-.19-.21.09-.49.27-.64.33-.18.07-.5.18-.74.24-.13.03-.26.06-.39.08-.07.01-.13.02-.2.03-.05,0-.05,0,0,0h-.08c-.29.03-.58.04-.87.03-.39-.02-.77.36-.75.75.02.42.33.73.75.75h0Z"/>
      </g>
    </g>
  </g>
</svg>