<?xml version="1.0" encoding="UTF-8"?>
<svg id="resources" xmlns="http://www.w3.org/2000/svg" viewBox="0 0 142.68 144.26">
  <defs>
    <style>
      .cls-1 {
        fill: #a2c0e2;
      }

      .cls-2 {
        fill: #fdffea;
      }
    </style>
  </defs>
  <rect class="cls-1" y="0" width="142.68" height="144.26"/>
  <g>
    <path class="cls-2" d="M43.35,57.5c-1.22-.37-2.07.57-2.53,1.61-.82,1.86-1.35,3.9-1.97,5.84-1.29,4.01-2.46,8.05-3.54,12.13-.1.39.13.81.52.92,11.16,3.08,22.78,4.43,34.35,4.02,5.82-.21,11.62-.86,17.34-1.95,2.83-.54,5.63-1.18,8.41-1.93s5.5-1.45,8.07-2.56c2.72-1.17,3.21-3.75,3.55-6.44.41-3.24.16-6.51-.65-9.68-.08-.31-.4-.56-.72-.55-5.44.11-10.82-.52-16.08-1.91-.93-.25-1.33,1.2-.4,1.45,5.38,1.41,10.92,2.07,16.48,1.96l-.72-.55c.7,2.74.95,5.55.7,8.37-.12,1.27-.3,2.62-.71,3.84-.51,1.53-1.75,2.07-3.18,2.56-5.08,1.74-10.3,3.1-15.58,4.08-10.65,1.98-21.59,2.39-32.37,1.27-6.11-.64-12.16-1.8-18.08-3.43l.52.92c.48-1.8,4.97-18.9,6.19-18.53.93.28,1.32-1.17.4-1.45h0Z"/>
    <path class="cls-2" d="M34.86,78.3c.68,4.86-1.71,12.05,3.86,14.93,2.23,1.15,4.84,1.04,7.28.94,3.34-.13,6.69-.26,10.03-.39.41-.02.74-.33.75-.75.03-1.87.47-4.27,2.26-5.28,1.28-.72,3.57-.43,3.93,1.24.35,1.63-.62,3.41.98,4.64,1.46,1.13,4.01.96,5.74.97,2.21.02,4.44-.17,6.6-.61,1.93-.39,2.91-1.39,3.98-2.98,1.04-1.56,3.63-3.62,5.32-1.61,1,1.19.34,3.07,1.61,4.17s3.82.72,5.4.59c1.84-.15,3.66-.51,5.49-.71s3.54-.08,5.08-1.08c1.23-.8,2.15-2.08,2.47-3.52.25-1.13.26-2.39.38-3.54.21-2.12.43-4.24.64-6.36.39-3.89.79-7.79,1.18-11.68.1-.96-1.4-.95-1.5,0-.68,6.78-1.36,13.56-2.05,20.34-.15,1.47-.69,2.75-2.01,3.55-1.58.95-3.8.72-5.58.96-1.98.27-3.95.6-5.95.62-1.06.01-2.54.2-2.94-1-.26-.8-.21-1.66-.54-2.45-1.43-3.41-5.76-2.23-7.61.02-.58.7-.97,1.57-1.61,2.23-.85.88-2.13,1.02-3.28,1.2-2.39.37-4.83.45-7.24.27-1.45-.11-3.1-.12-3.1-1.97,0-.97.21-1.9-.13-2.85-.48-1.33-1.81-2.1-3.15-2.28-4.07-.54-5.8,3.75-5.86,7.11l.75-.75c-2.87.11-5.73.23-8.6.34-2.46.1-5.21.46-7.55-.5-5.35-2.21-2.97-9.86-3.58-14.21-.13-.95-1.58-.55-1.45.4h0Z"/>
    <path class="cls-2" d="M41.84,74.39c1.41,1.41,3.28,2.25,5.22,2.62.96.18,1.95.27,2.93.28.95,0,1.92-.14,2.48-1,.53-.81-.77-1.56-1.3-.76-.28.43-1.36.26-1.78.24-.8-.03-1.59-.12-2.37-.3-1.54-.35-2.99-1.01-4.12-2.14-.68-.68-1.74.38-1.06,1.06h0Z"/>
    <path class="cls-2" d="M60.84,75.43c1.52,1.13,3.71,1.09,5.52,1.18,1.03.06,2.06.08,3.09.08.88,0,1.79-.04,2.53-.57.78-.55.03-1.85-.76-1.3-.63.44-1.44.36-2.18.36-.9,0-1.8-.03-2.69-.08-1.55-.08-3.46-.01-4.76-.98-.33-.24-.83-.05-1.03.27-.23.38-.05.79.27,1.03h0Z"/>
    <path class="cls-2" d="M84.72,75.24c3.39.24,7.13.4,9.99-1.77.32-.24.49-.65.27-1.03-.19-.32-.7-.52-1.03-.27-2.66,2.01-6.09,1.78-9.23,1.56-.96-.07-.96,1.43,0,1.5h0Z"/>
    <path class="cls-2" d="M83.55,67.83c1.62.77,3.45.87,5.12.2s2.9-1.76,4.11-2.95c.69-.68-.37-1.74-1.06-1.06-1.01.98-2.08,1.96-3.39,2.53s-2.75.59-4.03-.02c-.37-.17-.81-.1-1.03.27-.19.33-.1.85.27,1.03h0Z"/>
    <path class="cls-2" d="M56.75,59.4c-.21,2.81-.25,5.7,1.62,8,1.77,2.17,4.48,3.23,7.21,3.44,1.54.12,3.09-.02,4.6-.29,1.14-.2,2.36-.52,3.06-1.52.77-1.09.59-2.57.59-3.83,0-1.85-.02-3.7-.02-5.55l-1.4.38c1.48,2.25,4.31,2.62,6.8,2.73,2.83.12,5.9-.47,7.82-2.73,1.66-1.95,1.78-4.75.52-6.95-1.37-2.38-4.12-3.51-6.77-3.4-.54.02-.79.46-.72.95.22,1.64.13,3.27-.22,4.88l.72-.55c-1.36-.12-2.58-.54-3.75-1.25-.37-.22-1.03-.04-1.1.45-.13.88-.19,1.73-.15,2.62l.75-.75c-1.22-.02-2.44-.04-3.66-.06-.42,0-.73.35-.75.75-.03.84-.07,1.69-.1,2.53.43-.18.85-.35,1.28-.53-1.08-1.11-2.17-2.22-3.25-3.34-.27-.27-.8-.31-1.06,0-1.15,1.36-2.44,2.54-3.92,3.54l1.1.45c-.38-1.44-1.1-3.14-2.87-3.11-.66.01-1.28.31-1.63.88s-.25.54-.86.1c-.5-.36-.93-.92-1.37-1.35-.32-.31-.97-.3-1.18.15-.34.75-.68,1.5-1.03,2.25-.4.87.89,1.63,1.3.76.34-.75.68-1.5,1.03-2.25l-1.18.15c.79.78,2.16,2.79,3.53,2.32.5-.17.61-.59.89-.97,1.05-1.41,1.7.61,1.93,1.48.12.45.7.72,1.1.45,1.59-1.07,3-2.31,4.23-3.77h-1.06c1.08,1.11,2.17,2.22,3.25,3.34.47.48,1.25.1,1.28-.53.03-.84.07-1.69.1-2.53l-.75.75c1.22.02,2.44.04,3.66.06.39,0,.77-.35.75-.75-.03-.75,0-1.48.1-2.22l-1.1.45c1.4.84,2.88,1.3,4.5,1.45.31.03.66-.25.72-.55.42-1.9.48-3.76.22-5.68l-.72.95c2.14-.09,4.37.73,5.48,2.66,1.08,1.87.82,4.17-.77,5.65-1.68,1.57-4.06,1.86-6.27,1.77-1.89-.08-4.36-.24-5.51-1.98-.4-.6-1.4-.39-1.4.38.01,2.47.24,5.06.01,7.52-.14,1.52-1.49,1.77-2.75,1.97s-2.66.31-3.99.2c-2.3-.2-4.61-1.08-6.08-2.93-1.6-2.01-1.43-4.6-1.25-7.01.07-.96-1.43-.96-1.5,0h0Z"/>
    <path class="cls-2" d="M55.45,53.95c-.09-1.6-1.29-2.7-2.68-3.35-1.52-.71-3.01-.58-4.34.46-1.39,1.09-2.23,2.75-2.88,4.36-.68,1.68-1.26,3.48-1.53,5.28-.24,1.58-.2,3.26.64,4.68.85,1.44,2.42,2.35,3.9,3.03,3.54,1.62,6.08-1.63,7.1-4.69.64-1.92.81-3.98.76-6-.04-1.72-.1-3.75-1.51-4.97-.73-.63-1.79.43-1.06,1.06.96.82,1,2.15,1.05,3.33.06,1.37.04,2.75-.18,4.1-.35,2.11-1.47,5.87-4.06,6.14-1.2.13-2.73-.89-3.64-1.6-1.1-.85-1.62-2.03-1.64-3.41-.02-1.3.31-2.58.68-3.82.41-1.39.87-2.78,1.56-4.07.62-1.16,1.62-2.72,3.07-2.87,1.22-.13,3.18,1,3.26,2.33.06.96,1.56.97,1.5,0h0Z"/>
  </g>
</svg>