<?xml version="1.0" encoding="UTF-8"?>
<svg id="Layer_1" data-name="Layer 1" xmlns="http://www.w3.org/2000/svg" viewBox="0 0 1336.14 740.87">
  <defs>
    <style>
      .cls-1 {
        fill: #f5e188;
      }
    </style>
  </defs>
  <g id="dctortas_">
    <g>
      <path class="cls-1" d="M146.41,684.98c-9.86,0-17.94-1.54-24.25-4.62-6.31-3.07-10.93-7.54-13.86-13.39-2.93-5.85-4.39-12.93-4.39-21.25v-107.61h57.73v-54.04h-57.73v-57.27h-60.96v19.4c0,12.32-3.31,21.71-9.93,28.17-6.62,6.47-16.09,9.7-28.4,9.7H0v54.04h42.95v110.85c0,28.33,7.85,50.27,23.55,65.81,15.7,15.55,37.71,23.32,66.05,23.32,4.62,0,9.7-.31,15.24-.92,5.54-.62,10.46-1.23,14.78-1.85v-51.73c-2.77.31-5.62.62-8.54.92-2.93.31-5.47.46-7.62.46Z"/>
      <path class="cls-1" d="M396.27,495.62c-20.02-11.39-42.49-17.09-67.43-17.09s-46.96,5.7-66.97,17.09c-20.02,11.4-36.02,26.95-48.03,46.65-12.01,19.71-18.01,42.19-18.01,67.43s6,47.73,18.01,67.43c12.01,19.71,28.09,35.26,48.26,46.65,20.16,11.39,42.41,17.09,66.74,17.09s46.95-5.69,66.97-17.09c20.01-11.39,36.02-26.94,48.03-46.65,12.01-19.7,18.01-42.18,18.01-67.43s-5.93-48.1-17.78-67.66c-11.86-19.55-27.79-35.02-47.8-46.42ZM389.58,648.73c-6,11.55-14.17,20.55-24.48,27.02-10.32,6.47-22.4,9.7-36.26,9.7s-25.56-3.23-36.02-9.7c-10.47-6.47-18.71-15.47-24.71-27.02-6-11.55-9.01-24.55-9.01-39.03s3-27.4,9.01-38.8c6-11.39,14.24-20.32,24.71-26.79,10.46-6.47,22.47-9.7,36.02-9.7s25.94,3.23,36.26,9.7c10.31,6.47,18.47,15.4,24.48,26.79,6,11.4,9.01,24.33,9.01,38.8s-3,27.48-9.01,39.03Z"/>
      <path class="cls-1" d="M587.25,492.39c-9.57,5.67-17.19,14.72-22.86,27.11v-35.42h-57.27v251.25h60.96v-139.94c0-19.09,5.23-33.87,15.7-44.34s24.32-15.7,41.57-15.7h21.71v-54.04h-14.78c-17.55,0-32.56,3.69-45.03,11.08Z"/>
      <path class="cls-1" d="M815.63,684.98c-9.86,0-17.94-1.54-24.25-4.62-6.31-3.07-10.93-7.54-13.86-13.39-2.93-5.85-4.39-12.93-4.39-21.25v-107.61h57.73v-54.04h-57.73v-57.27h-60.96v19.4c0,12.32-3.31,21.71-9.93,28.17-6.62,6.47-16.09,9.7-28.4,9.7h-4.62v54.04h42.95v110.85c0,28.33,7.85,50.27,23.55,65.81,15.7,15.55,37.71,23.32,66.05,23.32,4.62,0,9.7-.31,15.24-.92,5.54-.62,10.46-1.23,14.78-1.85v-51.73c-2.77.31-5.62.62-8.54.92-2.93.31-5.47.46-7.62.46Z"/>
      <path class="cls-1" d="M1039.17,489.85c-15.7-7.54-33.87-11.32-54.5-11.32-16.94,0-32.64,2.77-47.11,8.31-14.48,5.54-27.02,13.16-37.64,22.86-10.62,9.7-18.4,21.17-23.32,34.41l49.42,24.02c4.62-11.08,11.93-20.16,21.94-27.25,10-7.08,21.48-10.62,34.41-10.62,13.86,0,24.94,3.62,33.25,10.85,8.31,7.24,12.47,16.24,12.47,27.02v8.14l-74.36,12.18c-19.71,3.08-36.02,8.31-48.96,15.7-12.93,7.39-22.56,16.55-28.87,27.48-6.31,10.93-9.47,23.32-9.47,37.18s3.54,27.18,10.62,38.1c7.08,10.93,17.16,19.33,30.25,25.17,13.08,5.84,28.4,8.77,45.95,8.77,13.86,0,26.4-1.85,37.64-5.54,11.24-3.69,21.4-9.24,30.48-16.63,3.68-3,7.14-6.26,10.39-9.76v26.39h57.27v-167.19c0-17.55-4.39-33.09-13.16-46.65-8.78-13.55-21.01-24.09-36.72-31.64ZM1020.23,664.2c-5.24,9.55-12.7,17.02-22.4,22.4-9.7,5.39-20.86,8.08-33.48,8.08-9.86,0-18.09-2.54-24.71-7.62-6.62-5.08-9.93-11.93-9.93-20.55s2.92-16.09,8.78-21.48c5.85-5.38,14.78-9.16,26.79-11.32l62.81-11.16v10.7c0,11.08-2.62,21.4-7.85,30.94Z"/>
      <path class="cls-1" d="M1271.01,591.22l-40.18-12.01c-5.85-1.85-11.01-3.85-15.47-6-4.47-2.15-7.93-4.92-10.39-8.31-2.47-3.38-3.69-7.23-3.69-11.55,0-7.69,2.92-13.78,8.78-18.24,5.85-4.46,13.86-6.7,24.02-6.7,12.62,0,24.02,3.31,34.18,9.93,10.16,6.62,17.39,15.63,21.71,27.02l46.19-21.71c-7.7-20.62-20.63-36.64-38.8-48.03-18.17-11.39-39.11-17.09-62.81-17.09-18.17,0-34.26,3.23-48.26,9.7-14.01,6.47-24.94,15.47-32.79,27.02-7.85,11.55-11.78,25.02-11.78,40.41,0,17.25,5.46,32.26,16.4,45.03,10.93,12.78,26.86,22.1,47.8,27.94l41.1,11.55c5.54,1.54,10.46,3.46,14.78,5.77,4.31,2.31,7.77,5.08,10.39,8.31,2.61,3.23,3.93,7.32,3.93,12.24,0,8.01-3.23,14.48-9.7,19.4-6.47,4.93-15.09,7.39-25.86,7.39-14.17,0-27.02-4-38.56-12.01-11.55-8-20.55-19.09-27.02-33.25l-45.72,21.71c7.69,21.87,21.48,39.19,41.34,51.96,19.86,12.78,43.18,19.17,69.97,19.17,19.09,0,35.71-3.23,49.88-9.7,14.16-6.47,25.24-15.47,33.25-27.02,8-11.55,12.01-24.86,12.01-39.95,0-17.85-5.62-32.94-16.86-45.26-11.24-12.31-27.18-21.55-47.8-27.71Z"/>
    </g>
    <rect class="cls-1" x="647.94" y="289.42" width="687.71" height="61.48"/>
    <g>
      <path class="cls-1" d="M204.26,123.72c-7.24-7.91-15.94-14.44-26.1-19.58-14.94-7.54-31.95-11.32-51.03-11.32-24.02,0-45.57,5.85-64.66,17.55-19.09,11.71-34.26,27.41-45.49,47.11C5.74,177.2.12,199.37.12,224s5.54,46.5,16.63,66.51c11.08,20.02,26.25,35.79,45.49,47.34,19.24,11.55,41.03,17.32,65.35,17.32,18.16,0,34.94-3.54,50.34-10.62,11.87-5.46,21.71-12.94,29.56-22.43v27.51h57.27V0h-60.5v123.72ZM195.26,263.26c-6,11.4-14.32,20.32-24.94,26.79-10.62,6.47-22.71,9.7-36.26,9.7s-25.71-3.23-36.49-9.7c-10.78-6.47-19.17-15.39-25.17-26.79-6-11.39-9.01-24.48-9.01-39.26s3-27.4,9.01-38.8c6-11.39,14.39-20.32,25.17-26.79,10.77-6.47,22.93-9.7,36.49-9.7s25.63,3.23,36.26,9.7c10.62,6.47,18.94,15.4,24.94,26.79,6,11.4,9.01,24.33,9.01,38.8s-3,27.87-9.01,39.26Z"/>
      <path class="cls-1" d="M479.76,288.2c-10.62,7.7-23.17,11.55-37.64,11.55-13.24,0-25.02-3.23-35.33-9.7-10.32-6.47-18.4-15.39-24.25-26.79-5.85-11.39-8.78-24.48-8.78-39.26s2.92-27.48,8.78-39.03c5.85-11.55,13.93-20.47,24.25-26.79,10.31-6.31,22.09-9.47,35.33-9.47,14.16,0,26.71,3.77,37.64,11.32,10.93,7.55,18.71,17.78,23.32,30.71l53.11-23.55c-4.93-14.78-13.01-27.71-24.25-38.8-11.24-11.08-24.56-19.78-39.95-26.09-15.4-6.31-32.03-9.47-49.88-9.47-25.25,0-47.8,5.7-67.66,17.09-19.86,11.4-35.49,26.95-46.88,46.65-11.39,19.71-17.09,42.03-17.09,66.97s5.77,47.34,17.32,67.2c11.55,19.86,27.17,35.56,46.88,47.11,19.7,11.55,42.18,17.32,67.43,17.32,18.16,0,34.94-3.16,50.34-9.47,15.39-6.31,28.63-15.08,39.72-26.33,11.08-11.24,19.09-23.94,24.02-38.1l-53.11-24.02c-4.93,12.93-12.7,23.25-23.32,30.94Z"/>
    </g>
  </g>
</svg>