<?xml version="1.0" encoding="UTF-8"?>
<svg id="resources" xmlns="http://www.w3.org/2000/svg" viewBox="0 0 136.61 138.13">
  <defs>
    <style>
      .cls-1 {
        fill: #a2c0e2;
      }

      .cls-2 {
        fill: #fdffea;
      }
    </style>
  </defs>
  <rect class="cls-1" x="0" width="136.61" height="138.13"/>
  <g>
    <path class="cls-2" d="M36.01,41.84c1.47,18.16-1.91,36.47,1.2,54.54.16.95,1.61.55,1.45-.4-3.09-17.92.31-36.12-1.15-54.14-.08-.96-1.58-.96-1.5,0h0Z"/>
    <path class="cls-2" d="M38.08,97.55c10.55.2,21.09.41,31.64.61s20.41.83,30.32-1.52c.94-.22.54-1.67-.4-1.45-9.93,2.36-20.3,1.66-30.41,1.46s-20.76-.4-31.14-.6c-.97-.02-.97,1.48,0,1.5h0Z"/>
    <path class="cls-2" d="M100.45,95.5c.21-17.12-.03-34.24-.74-51.35-.12-2.92.06-6.41-3.61-6.83-4.19-.47-8.48-.54-12.69-.7-8.59-.32-17.19-.37-25.79-.26-4.79.06-9.57.16-14.36.32-1.77.06-3.94.06-5.49,1.04-1.21.76-1.44,2.16-1.75,3.44-.23.94,1.22,1.34,1.45.4.38-1.57.55-2.55,2.29-3,1.83-.48,3.84-.39,5.72-.44,3.97-.11,7.94-.2,11.9-.25,7.77-.1,15.54-.08,23.31.16,3.97.12,7.93.3,11.89.54,1.48.09,4.43-.29,5.18,1.3s.44,3.84.51,5.51c.31,7.77.53,15.54.65,23.31.14,8.93.15,17.86.04,26.8-.01.97,1.49.97,1.5,0h0Z"/>
    <path class="cls-2" d="M97.85,48.09c-10.36-.02-20.71-.04-31.07-.05-4.95,0-9.91-.13-14.81.71-2.47.43-4.91.94-7.41,1.14s-5.05.16-7.57-.08c-.96-.09-.95,1.41,0,1.5,4.83.46,9.49-.03,14.24-.91,5.15-.95,10.33-.88,15.54-.87,10.36.02,20.71.04,31.07.05.97,0,.97-1.5,0-1.5h0Z"/>
    <path class="cls-2" d="M49.58,41.35c-1.74-.17-3.59-.28-5.17.63-.73.42-1.43,1.09-1.68,1.91s.02,1.69.58,2.32c1.11,1.25,3.24,1.49,4.81,1.38,1.47-.11,3.5-.53,4.19-2.02.44-.95.14-1.99-.36-2.86-.45-.79-1.22-1.53-2.2-1.26-.93.25-.54,1.7.4,1.45.24-.06.6.73.67.89.2.43.34.94.01,1.35-.27.33-.72.52-1.11.65-.59.19-1.21.3-1.83.33-1.05.05-2.49-.04-3.34-.76-.96-.83.01-1.78.85-2.19,1.28-.63,2.81-.43,4.18-.3.4.04.75-.37.75-.75,0-.44-.35-.71-.75-.75h0Z"/>
    <path class="cls-2" d="M64.91,41.35c-1.74-.17-3.59-.28-5.17.63-.73.42-1.43,1.09-1.68,1.91s.02,1.69.58,2.32c1.11,1.25,3.24,1.49,4.81,1.38,1.47-.11,3.5-.53,4.19-2.02.44-.95.14-1.99-.36-2.86-.45-.79-1.22-1.53-2.2-1.26-.93.25-.54,1.7.4,1.45.24-.06.6.73.67.89.2.43.34.94.01,1.35-.27.33-.72.52-1.11.65-.59.19-1.21.3-1.83.33-1.05.05-2.49-.04-3.34-.76-.96-.83.01-1.78.85-2.19,1.28-.63,2.81-.43,4.18-.3.4.04.75-.37.75-.75,0-.44-.35-.71-.75-.75h0Z"/>
    <path class="cls-2" d="M80.08,41.35c-1.74-.17-3.59-.28-5.17.63-.73.42-1.43,1.09-1.68,1.91s.02,1.69.58,2.32c1.11,1.25,3.24,1.49,4.81,1.38,1.47-.11,3.5-.53,4.19-2.02.44-.95.14-1.99-.36-2.86-.45-.79-1.22-1.53-2.2-1.26-.93.25-.54,1.7.4,1.45.24-.06.6.73.67.89.2.43.34.94.01,1.35-.27.33-.72.52-1.11.65-.59.19-1.21.3-1.83.33-1.05.05-2.49-.04-3.34-.76-.96-.83.01-1.78.85-2.19,1.28-.63,2.81-.43,4.18-.3.4.04.75-.37.75-.75,0-.44-.35-.71-.75-.75h0Z"/>
    <path class="cls-2" d="M92.15,41.35c-1.74-.17-3.59-.28-5.17.63-.73.42-1.43,1.09-1.68,1.91s.02,1.69.58,2.32c1.11,1.25,3.24,1.49,4.81,1.38,1.47-.11,3.5-.53,4.19-2.02.44-.95.14-1.99-.36-2.86-.45-.79-1.22-1.53-2.2-1.26-.93.25-.54,1.7.4,1.45.24-.06.6.73.67.89.2.43.34.94.01,1.35-.27.33-.72.52-1.11.65-.59.19-1.21.3-1.83.33-1.05.05-2.49-.04-3.34-.76-.96-.83.01-1.78.85-2.19,1.28-.63,2.81-.43,4.18-.3.4.04.75-.37.75-.75,0-.44-.35-.71-.75-.75h0Z"/>
    <path class="cls-2" d="M42.52,54.82c0,6.15-.01,12.31-.02,18.46,0,3.02-.03,6.04,0,9.06,0,1.43.04,2.87.19,4.29.1.92.11,2.16,1,2.72s2.27.3,3.22.31c1.57.03,3.15.05,4.72.08,3.07.05,6.13.09,9.2.12,6.21.06,12.43.06,18.64-.05,3.06-.06,6.13-.15,9.19-.27,1.49-.06,2.98-.12,4.47-.21.87-.05,1.84-.11,2.07-1.14.26-1.17-.1-2.74-.17-3.93-.09-1.55-.17-3.1-.25-4.66-.16-3.02-.29-6.05-.37-9.07s-.1-6.21-.03-9.31c.03-1.47.09-2.94.16-4.41.03-.65.07-1.3.12-1.96s.24-1.46.05-2.09c-.26-.82-1.01-.93-1.77-.97-1.57-.07-3.14-.09-4.71-.13-3.14-.08-6.29-.13-9.43-.16-6.95-.06-13.9-.01-20.85.15-3.39.08-6.78.19-10.17.32-1.52.06-6.38-.45-5.55,2.45.26.93,1.71.53,1.45-.4-.15-.52,3.53-.53,3.86-.54,1.41-.06,2.81-.11,4.22-.15,2.73-.09,5.46-.16,8.19-.22,5.46-.11,10.92-.15,16.38-.12,2.73.01,5.46.05,8.19.1s5.52-.12,8.19.2c.78.09.57.29.51,1.08-.05.65-.09,1.3-.13,1.96-.08,1.39-.13,2.77-.17,4.16-.07,2.69-.07,5.39-.03,8.08.09,5.4.38,10.79.69,16.18.04.65.07,1.31.11,1.96.04.78.3,1.03-.54,1.12-1.39.15-2.82.14-4.22.2-2.73.11-5.46.2-8.2.26-10.94.24-21.87.08-32.81-.11-.66-.01-1.33-.02-1.99-.03-.18,0-.78.06-.99-.02-.75-.28-.66-.85-.73-1.5-.16-1.42-.18-2.86-.19-4.29-.02-3.02,0-6.04,0-9.06,0-6.15.01-12.31.02-18.46,0-.97-1.5-.97-1.5,0h0Z"/>
    <path class="cls-2" d="M52.23,56.2c8.7.1,17.39.2,26.09.29l3.2.04c.48,0,.97,0,1.45.02.28.01.61,0,.88.08.51.15.97.64.5,1.17s-2.02.43-2.65.47c-1.16.08-2.32.16-3.47.23-4.39.26-8.78.42-13.17.48-2.4.03-4.8.04-7.2,0-1.27-.02-2.55-.04-3.81-.24-.57-.09-1.17-.21-1.71-.41-.21-.08-.43-.17-.62-.29-.15-.07-.27-.17-.37-.31-.41-.28-.32-.6.26-.98.91.34,1.3-1.11.4-1.45-1.56-.58-2.86,1.23-2.31,2.65.8,2.08,3.93,2.31,5.79,2.45,5.87.43,11.89.09,17.77-.15,3.06-.13,6.13-.29,9.18-.53,1.46-.12,3.73-.46,3.75-2.37.03-2.5-3.29-2.31-4.92-2.32-2.95-.03-5.91-.07-8.86-.1-6.73-.08-13.45-.15-20.18-.23-.97-.01-.97,1.49,0,1.5h0Z"/>
    <path class="cls-2" d="M37.86,96.88l-.02,2.16c0,.65-.09,1.38.26,1.96s1.03.76,1.68.79c.72.03,1.45.03,2.17.03s1.48,0,2.22-.01c.62,0,1.34.06,1.87-.3.65-.44.59-1.26.63-1.96s.08-1.45.11-2.18c.05-.96-1.45-.96-1.5,0-.03.58-.06,1.16-.09,1.75-.02.29-.03.58-.05.87,0,0-.02.41-.02.41-.03,0,.08-.13.08-.13,0,0-.56.04-.6.04-.3,0-.59,0-.89.01-.59,0-1.18,0-1.77,0s-1.18,0-1.77-.02c-.21,0-.43.01-.63-.03-.08-.02-.14-.02-.21-.07.08.06.02.04,0-.08-.05-.47,0-.97,0-1.44v-1.8c.02-.97-1.48-.97-1.49,0h0Z"/>
    <path class="cls-2" d="M92.22,97.83c0,.66-.02,1.33-.02,1.99,0,.73.32,1.27,1.1,1.3,1.31.05,2.64-.03,3.94-.04.62,0,1.26.03,1.88-.03s1.2-.35,1.42-.99c.2-.57.18-1.26.21-1.85.03-.68.02-1.37-.01-2.05-.05-.96-1.55-.97-1.5,0,.05.84.05,1.69-.01,2.53-.02.23-.03.46-.06.68,0,0-.02.14-.02.14,0,.1-.04.07.05.01-.16.1-.62.05-.85.05-.85,0-1.71.02-2.56.03-.42,0-.83,0-1.25.01-.23,0-.46,0-.69,0-.18,0-.41.05-.57,0l.33.19c.08.07.04.34.09.15.02-.1,0-.23,0-.33v-.6c0-.4.01-.8.02-1.19,0-.97-1.49-.97-1.5,0h0Z"/>
  </g>
</svg>